<?xml version="1.0" standalone="no"?>
<!DOCTYPE svg PUBLIC "-//W3C//DTD SVG 20010904//EN"
 "http://www.w3.org/TR/2001/REC-SVG-20010904/DTD/svg10.dtd">
<svg version="1.0" xmlns="http://www.w3.org/2000/svg"
 width="3000.000000pt" height="1000.000000pt" viewBox="0 0 3000.000000 1000.000000"
 preserveAspectRatio="xMidYMid meet">

<g transform="translate(0.000000,1000.000000) scale(0.100000,-0.100000)"
fill="#000000" stroke="none">
<path d="M4717 9656 c-36 -27 -123 -412 -114 -501 6 -64 53 -161 89 -188 23
-17 30 -18 57 -7 18 7 44 33 62 62 28 42 33 62 37 127 4 73 -16 284 -39 419
-7 41 -19 70 -32 83 -24 22 -36 23 -60 5z"/>
<path d="M5785 9608 c-35 -19 -96 -82 -115 -118 -10 -19 -25 -67 -35 -106 -17
-69 -16 -74 9 -255 27 -192 40 -254 56 -264 15 -9 55 60 130 223 81 176 90
207 90 322 0 148 -62 238 -135 198z"/>
<path d="M3476 9376 c-40 -42 -58 -102 -57 -184 1 -105 13 -138 99 -272 84
-131 145 -220 168 -241 23 -21 24 -21 31 -3 5 10 8 120 8 244 l0 225 -32 75
c-39 90 -81 144 -134 170 -21 11 -41 20 -45 20 -4 0 -21 -15 -38 -34z"/>
<path d="M6832 9233 c-74 -80 -207 -252 -239 -309 -22 -40 -28 -64 -30 -134
-6 -127 20 -158 107 -131 83 26 126 91 203 306 89 252 93 269 73 300 -26 40
-54 32 -114 -32z"/>
<path d="M5214 9251 c-182 -83 -241 -370 -123 -603 65 -128 187 -219 345 -256
91 -22 122 -18 137 15 16 35 -4 47 -109 66 -177 33 -303 155 -340 328 -29 138
-4 240 78 314 43 38 56 45 93 45 29 0 47 -6 60 -20 24 -27 13 -47 -35 -61 -79
-24 -120 -108 -83 -171 76 -131 241 -12 244 175 1 81 -18 124 -73 160 -52 33
-131 37 -194 8z"/>
<path d="M4040 9188 c-78 -53 -100 -138 -64 -245 43 -127 167 -191 232 -120
28 31 35 60 23 105 -14 49 -39 72 -98 87 -58 15 -74 36 -49 64 65 72 214 -15
252 -148 12 -38 15 -82 12 -155 -3 -91 -7 -107 -36 -162 -61 -113 -137 -175
-265 -218 -75 -25 -93 -35 -95 -53 -4 -30 32 -53 72 -46 56 10 211 91 262 137
58 52 103 130 134 234 58 191 -12 418 -154 507 -40 24 -62 30 -120 33 -61 3
-76 1 -106 -20z"/>
<path d="M6070 9168 c-63 -32 -90 -88 -90 -183 0 -149 98 -251 188 -195 39 24
55 62 49 113 -6 45 -28 72 -79 98 -43 22 -48 41 -16 63 47 33 106 7 159 -70
57 -83 51 -222 -16 -354 -66 -129 -247 -231 -383 -214 -57 7 -112 -9 -112 -32
0 -8 9 -23 20 -34 39 -39 226 -20 341 35 143 67 260 248 276 426 10 110 -28
229 -93 294 -74 74 -163 94 -244 53z"/>
<path d="M2365 8950 c-16 -26 -4 -75 49 -200 108 -253 147 -309 251 -364 99
-52 148 -27 148 73 0 97 -30 143 -215 334 -144 148 -167 168 -195 167 -17 0
-35 -5 -38 -10z"/>
<path d="M3166 8905 c-47 -16 -100 -66 -129 -120 -32 -59 -31 -225 2 -308 47
-120 151 -228 281 -290 55 -26 80 -32 157 -35 159 -7 293 35 293 93 0 36 -30
39 -120 11 -122 -39 -209 -32 -329 28 -156 76 -259 284 -207 419 21 56 65 98
103 99 60 2 68 -24 24 -74 -49 -57 -55 -75 -41 -125 16 -54 50 -83 99 -83 103
1 150 151 87 282 -32 66 -51 85 -103 104 -48 17 -68 17 -117 -1z"/>
<path d="M4714 8840 c-58 -23 -112 -144 -100 -224 11 -71 45 -161 74 -194 64
-74 125 -39 158 90 39 153 17 270 -59 317 -38 23 -42 24 -73 11z"/>
<path d="M7047 8739 c-126 -31 -236 -143 -289 -297 -19 -55 -23 -87 -22 -177
1 -157 35 -233 160 -359 72 -72 129 -101 159 -82 38 25 29 43 -49 101 -85 62
-114 97 -150 176 -65 141 -45 311 53 442 42 56 103 89 175 95 44 3 55 1 79
-22 18 -17 27 -34 25 -49 -3 -20 -8 -22 -70 -22 -60 0 -70 -3 -97 -29 -37 -36
-50 -72 -40 -112 14 -49 43 -69 104 -68 64 0 119 33 165 96 80 110 67 224 -34
283 -48 28 -116 37 -169 24z"/>
<path d="M7731 8700 c-58 -12 -120 -50 -179 -110 -36 -37 -71 -94 -140 -229
-51 -99 -92 -187 -92 -196 0 -25 25 -18 133 36 235 117 321 183 390 295 29 49
38 73 40 118 1 38 -3 60 -13 70 -20 20 -84 27 -139 16z"/>
<path d="M6483 8545 c-95 -41 -153 -152 -155 -294 0 -80 1 -86 26 -108 45 -38
71 -31 140 41 82 85 126 167 126 236 0 63 -22 113 -56 129 -31 14 -41 14 -81
-4z"/>
<path d="M2880 8303 c-51 -19 -64 -96 -29 -187 25 -67 96 -136 185 -178 53
-25 64 -27 93 -17 46 16 56 48 35 117 -54 188 -178 303 -284 265z"/>
<path d="M2207 8269 c-130 -31 -199 -143 -153 -252 18 -44 105 -121 154 -135
109 -33 191 6 192 89 0 30 -7 43 -40 73 -44 40 -94 47 -140 21 -37 -21 -59
-18 -66 9 -13 55 42 96 130 96 93 0 159 -37 228 -128 121 -161 123 -370 5
-516 -79 -98 -87 -136 -28 -136 35 0 83 52 135 145 70 126 83 242 43 382 -52
179 -174 307 -332 348 -66 17 -73 17 -128 4z"/>
<path d="M4865 8224 c-385 -40 -535 -69 -815 -159 -147 -47 -215 -74 -375
-147 -354 -162 -670 -383 -955 -668 -311 -310 -541 -652 -710 -1055 -370 -882
-317 -1919 142 -2760 157 -289 322 -508 563 -751 191 -191 315 -294 520 -429
425 -280 862 -447 1380 -525 175 -27 589 -38 773 -21 1040 96 1955 643 2516
1504 281 431 452 924 502 1445 18 181 15 517 -6 687 -51 425 -195 858 -408
1225 -524 904 -1440 1506 -2487 1635 -123 16 -553 28 -640 19z m426 -184
c1054 -68 1989 -635 2524 -1532 288 -482 441 -1073 422 -1633 -26 -786 -339
-1507 -897 -2065 -511 -513 -1154 -822 -1895 -911 -142 -17 -555 -17 -705 0
-555 63 -1094 274 -1537 602 -151 112 -257 204 -393 346 -307 318 -533 678
-682 1088 -319 880 -206 1882 300 2665 492 761 1270 1266 2166 1406 253 40
455 50 697 34z"/>
<path d="M4754 7896 c-48 -21 -101 -91 -115 -150 -15 -71 -1 -118 60 -189 54
-65 75 -124 87 -241 7 -66 6 -69 -12 -62 -10 5 -49 18 -85 31 -102 35 -128 52
-224 144 -133 128 -212 158 -329 127 -113 -31 -177 -107 -156 -185 28 -107
123 -146 254 -106 85 26 127 20 224 -30 56 -29 113 -50 160 -59 117 -22 148
-70 70 -106 -58 -26 -104 -69 -175 -165 -66 -88 -185 -262 -252 -369 l-43 -69
7 -186 c8 -221 22 -399 46 -586 9 -67 23 -115 56 -190 106 -241 271 -514 391
-644 l58 -65 135 36 c119 32 141 35 199 28 36 -5 106 -11 155 -15 l90 -6 32
48 c105 157 207 421 288 742 l26 103 -16 212 c-29 396 -65 634 -104 686 -14
19 -109 120 -211 223 -185 189 -284 267 -338 267 -26 0 -37 20 -28 54 5 19 21
30 75 51 38 14 93 44 122 65 143 105 130 100 259 97 110 -2 119 -1 153 23 40
27 67 73 74 129 16 123 -196 202 -336 125 -56 -30 -110 -88 -180 -191 -22 -34
-56 -73 -74 -87 -38 -28 -152 -96 -163 -96 -4 0 -4 51 -1 113 5 98 9 120 36
176 57 122 48 198 -34 270 -67 58 -121 73 -181 47z m398 -1004 c56 -35 157
-149 211 -239 63 -104 130 -257 161 -366 89 -308 45 -711 -111 -1022 -63 -124
-187 -261 -294 -323 l-53 -30 -63 23 c-216 82 -377 247 -510 525 -125 261
-171 562 -124 810 56 288 166 512 298 603 26 18 84 60 131 94 l84 61 116 -56
c65 -32 134 -67 154 -80z"/>
<path d="M4871 6905 c-22 -20 -52 -61 -67 -91 -24 -50 -26 -59 -15 -94 14 -48
107 -135 159 -150 46 -12 74 5 113 71 56 97 56 137 -1 209 -39 49 -79 78 -118
86 -25 5 -37 0 -71 -31z"/>
<path d="M5168 6605 c-32 -18 -84 -118 -93 -179 -8 -53 10 -93 68 -153 48 -50
96 -70 127 -53 24 13 63 93 81 165 10 39 9 49 -12 92 -25 53 -108 143 -130
143 -8 -1 -26 -7 -41 -15z"/>
<path d="M4698 6548 c-38 -41 -67 -103 -68 -143 0 -50 98 -135 156 -135 58 0
124 78 124 147 0 58 -102 163 -157 163 -15 0 -37 -13 -55 -32z"/>
<path d="M4965 6214 c-39 -39 -85 -125 -85 -159 0 -53 94 -135 164 -142 37 -5
47 -1 78 25 33 30 68 107 68 152 0 26 -55 97 -97 124 -65 43 -86 43 -128 0z"/>
<path d="M4575 6230 c-25 -9 -67 -71 -83 -120 -20 -61 26 -163 88 -195 38 -20
60 -13 101 28 78 77 88 135 38 211 -41 61 -102 93 -144 76z"/>
<path d="M5305 6075 c-49 -52 -71 -116 -56 -165 19 -63 130 -147 175 -131 27
9 74 103 81 161 8 57 -17 99 -82 140 -60 38 -78 38 -118 -5z"/>
<path d="M4841 5884 c-35 -29 -71 -92 -71 -124 0 -58 119 -180 175 -180 40 0
91 77 101 152 7 52 -18 95 -81 139 -61 42 -86 45 -124 13z"/>
<path d="M5146 5677 c-45 -46 -72 -111 -63 -149 15 -58 128 -168 173 -168 35
0 89 71 109 144 16 57 16 66 2 93 -28 53 -123 123 -168 123 -7 0 -31 -19 -53
-43z"/>
<path d="M4659 5618 c-33 -27 -59 -83 -59 -128 0 -38 6 -51 38 -86 20 -22 58
-53 85 -68 44 -26 49 -27 71 -12 27 17 86 128 86 160 0 79 -165 178 -221 134z"/>
<path d="M4941 5302 c-62 -62 -72 -101 -41 -162 12 -23 42 -62 67 -86 59 -58
94 -60 144 -6 48 50 79 104 79 136 0 61 -91 154 -160 163 -36 5 -42 2 -89 -45z"/>
<path d="M5765 7231 c-5 -10 183 -121 204 -121 6 0 11 16 11 36 0 32 -4 37
-42 54 -24 10 -61 21 -83 25 -22 3 -50 8 -62 11 -12 2 -24 0 -28 -5z"/>
<path d="M5537 7219 c-30 -18 -2 -46 93 -94 49 -25 92 -45 95 -45 7 0 6 41 -1
77 -11 56 -130 95 -187 62z"/>
<path d="M5306 7164 c-27 -9 -45 -19 -40 -23 16 -13 235 -103 240 -98 3 2 2
23 -2 46 -6 38 -12 45 -55 67 -55 27 -75 29 -143 8z"/>
<path d="M5784 7098 c4 -29 8 -53 9 -54 9 -8 175 -94 180 -94 4 0 7 22 7 48
l0 48 -94 52 c-51 29 -97 52 -101 52 -4 0 -4 -24 -1 -52z"/>
<path d="M6030 7111 c0 -38 2 -41 76 -85 42 -25 81 -46 86 -46 5 0 8 15 6 33
-2 27 -15 41 -73 84 -38 29 -76 53 -82 53 -8 0 -13 -14 -13 -39z"/>
<path d="M5557 7093 c-2 -5 1 -26 7 -48 10 -34 20 -44 78 -77 36 -20 78 -40
94 -44 25 -6 27 -5 21 17 -4 13 -7 34 -7 46 0 19 -17 31 -90 68 -97 49 -97 49
-103 38z"/>
<path d="M4052 7059 c-40 -30 -42 -33 -42 -86 0 -35 4 -53 11 -51 6 2 46 28
90 58 65 46 78 60 79 83 0 26 -2 27 -48 27 -38 0 -57 -6 -90 -31z"/>
<path d="M4288 7049 c-46 -30 -48 -33 -48 -80 0 -27 4 -49 8 -49 8 0 157 93
197 123 27 20 21 24 -50 31 -56 6 -63 4 -107 -25z"/>
<path d="M3860 7034 c-95 -36 -114 -53 -103 -92 4 -18 11 -33 14 -35 4 -1 46
29 93 66 116 92 115 107 -4 61z"/>
<path d="M6030 6962 l0 -48 74 -42 c40 -23 79 -42 85 -42 6 0 11 18 11 44 l0
44 -80 46 c-43 25 -82 46 -85 46 -3 0 -5 -22 -5 -48z"/>
<path d="M3861 6913 l-83 -66 5 -44 c2 -24 7 -46 10 -49 3 -3 42 22 86 55 l81
62 0 49 c0 27 -3 51 -7 53 -5 3 -46 -24 -92 -60z"/>
<path d="M5807 6972 c-3 -4 -3 -27 0 -50 5 -40 10 -45 74 -82 102 -60 99 -60
99 -3 0 48 -1 50 -42 73 -24 13 -62 34 -85 47 -23 13 -44 20 -46 15z"/>
<path d="M4092 6909 c-73 -54 -82 -64 -82 -92 0 -18 5 -39 10 -47 8 -12 14
-11 42 10 119 86 116 83 123 129 4 24 3 47 -2 52 -4 4 -45 -19 -91 -52z"/>
<path d="M5410 6962 c0 -8 123 -92 134 -92 3 0 6 6 6 14 0 8 -29 30 -64 50
-67 38 -76 41 -76 28z"/>
<path d="M6250 6956 c0 -16 28 -42 36 -33 7 6 -18 47 -28 47 -5 0 -8 -6 -8
-14z"/>
<path d="M3627 6871 c-47 -48 -67 -77 -67 -94 0 -14 4 -29 10 -32 5 -3 41 20
80 52 67 55 70 60 66 92 -3 19 -9 38 -14 43 -5 5 -38 -23 -75 -61z"/>
<path d="M5700 6870 c0 -12 41 -40 59 -40 11 0 11 4 -3 19 -19 21 -56 34 -56
21z"/>
<path d="M6250 6833 l0 -48 79 -52 c43 -28 82 -49 85 -46 3 4 6 20 6 38 0 22
-9 39 -32 61 -35 32 -122 94 -132 94 -3 0 -6 -21 -6 -47z"/>
<path d="M5440 6863 c1 -16 129 -147 136 -140 16 16 -14 63 -66 104 -54 42
-70 50 -70 36z"/>
<path d="M4283 6819 c-34 -26 -53 -47 -53 -61 0 -17 10 -12 58 33 31 30 59 57
60 61 8 17 -16 5 -65 -33z"/>
<path d="M5610 6832 c0 -15 149 -152 165 -152 10 0 4 57 -7 72 -17 20 -134 98
-147 98 -6 0 -11 -8 -11 -18z"/>
<path d="M6030 6800 l0 -49 70 -46 c39 -25 75 -45 79 -45 10 0 19 87 11 100
-6 10 -141 90 -152 90 -5 0 -8 -22 -8 -50z"/>
<path d="M5820 6796 c0 -12 139 -126 154 -126 3 0 6 12 6 28 0 23 -11 33 -74
70 -80 46 -86 48 -86 28z"/>
<path d="M3651 6740 c-70 -60 -71 -62 -65 -98 3 -20 10 -41 15 -46 4 -5 39 19
77 53 69 61 69 62 62 102 -4 22 -10 42 -13 45 -3 3 -37 -22 -76 -56z"/>
<path d="M3872 6744 c-72 -54 -73 -56 -66 -92 12 -66 15 -66 93 -1 70 59 72
62 69 102 -2 22 -7 42 -13 44 -5 1 -43 -22 -83 -53z"/>
<path d="M4276 6710 c-25 -27 -46 -53 -47 -57 0 -4 -2 -18 -5 -30 -8 -47 16
-30 65 46 28 43 51 82 51 85 0 16 -21 1 -64 -44z"/>
<path d="M3497 6700 c-11 -16 -13 -26 -6 -29 16 -5 31 14 27 35 -3 17 -5 16
-21 -6z"/>
<path d="M4039 6701 c-13 -11 -21 -22 -17 -26 8 -8 58 23 58 36 0 14 -16 10
-41 -10z"/>
<path d="M4097 6658 c-62 -55 -67 -63 -67 -100 0 -22 4 -38 8 -36 18 7 142
157 142 172 0 30 -17 23 -83 -36z"/>
<path d="M5644 6674 c5 -37 19 -62 68 -125 85 -105 93 -107 85 -22 l-7 68 -67
62 c-38 34 -72 62 -77 63 -5 0 -6 -21 -2 -46z"/>
<path d="M6240 6667 l0 -53 71 -63 c39 -35 74 -60 78 -55 5 5 11 35 15 66 l6
57 -75 51 c-41 27 -79 50 -85 50 -6 0 -10 -23 -10 -53z"/>
<path d="M5834 6658 c6 -35 19 -55 69 -105 34 -35 65 -63 69 -63 4 0 8 24 8
54 l0 54 -66 51 c-37 28 -71 51 -77 51 -6 0 -7 -16 -3 -42z"/>
<path d="M6030 6647 c0 -28 11 -42 74 -99 79 -72 86 -72 86 -4 0 21 -8 40 -22
53 -34 30 -115 83 -127 83 -6 0 -11 -15 -11 -33z"/>
<path d="M3676 6585 c-61 -52 -65 -58 -59 -88 18 -90 12 -89 90 -12 l70 70 -9
43 c-5 23 -13 42 -18 42 -5 0 -38 -25 -74 -55z"/>
<path d="M3896 6585 c-36 -31 -66 -60 -66 -65 0 -15 12 -40 20 -40 4 0 35 32
70 71 83 93 69 113 -24 34z"/>
<path d="M3468 6577 c-31 -29 -61 -62 -68 -75 -14 -28 -4 -84 15 -80 7 2 41
30 75 62 61 59 62 60 55 103 -3 23 -9 43 -13 43 -4 -1 -32 -24 -64 -53z"/>
<path d="M4098 6509 c-32 -39 -58 -79 -58 -89 0 -38 13 -110 20 -110 4 0 31
39 59 86 43 72 51 93 51 135 0 27 -3 49 -7 49 -5 0 -34 -32 -65 -71z"/>
<path d="M6445 6500 l-7 -69 59 -66 c32 -36 61 -65 66 -65 24 0 -30 210 -64
246 -37 39 -46 31 -54 -46z"/>
<path d="M6239 6538 c0 -2 -3 -29 -6 -60 l-5 -56 62 -74 c34 -40 65 -74 69
-76 9 -3 21 56 21 109 0 31 -9 44 -64 97 -57 55 -74 68 -77 60z"/>
<path d="M3906 6464 c-31 -37 -55 -73 -52 -80 3 -7 8 -29 12 -48 3 -20 9 -36
13 -36 3 1 30 36 60 80 48 70 53 83 47 114 -4 20 -10 36 -15 36 -4 0 -33 -30
-65 -66z"/>
<path d="M5854 6451 c5 -81 8 -87 54 -155 27 -38 54 -72 61 -74 8 -3 11 24 11
88 l0 92 -66 67 -66 66 6 -84z"/>
<path d="M6030 6475 c0 -52 3 -58 67 -139 36 -47 70 -83 75 -80 4 3 8 38 8 77
l0 73 -63 62 c-34 34 -68 62 -75 62 -8 0 -12 -18 -12 -55z"/>
<path d="M5674 6483 c3 -10 11 -56 17 -102 11 -73 19 -94 60 -157 70 -107 73
-106 66 19 l-7 107 -57 75 c-55 70 -91 96 -79 58z"/>
<path d="M3493 6419 c-35 -34 -63 -69 -63 -78 0 -26 31 -112 39 -109 4 2 33
33 65 71 53 62 56 70 51 105 -9 53 -15 72 -23 72 -4 0 -35 -28 -69 -61z"/>
<path d="M3712 6420 c-61 -57 -64 -61 -57 -98 6 -38 21 -70 28 -62 2 3 29 39
60 81 49 66 56 81 51 108 -4 17 -9 31 -13 31 -3 0 -35 -27 -69 -60z"/>
<path d="M3935 6288 l-48 -72 12 -75 c22 -127 24 -128 71 -27 40 87 41 91 35
163 -4 40 -11 75 -15 78 -4 2 -29 -28 -55 -67z"/>
<path d="M4109 6273 l-45 -88 10 -97 c5 -54 13 -98 18 -98 16 0 88 170 88 210
0 60 -12 160 -20 160 -3 0 -27 -39 -51 -87z"/>
<path d="M6426 6328 c-3 -13 -7 -47 -10 -77 -5 -52 -4 -56 54 -145 82 -126 87
-132 94 -125 4 4 10 54 13 112 l6 105 -69 76 c-38 42 -72 76 -76 76 -4 0 -10
-10 -12 -22z"/>
<path d="M3742 6258 c-29 -40 -52 -82 -52 -93 1 -37 26 -119 38 -123 7 -2 12
1 12 6 0 5 21 47 46 92 44 78 46 84 39 136 -4 33 -11 54 -19 54 -7 0 -36 -33
-64 -72z"/>
<path d="M6225 6252 l-7 -79 52 -79 c49 -75 70 -98 70 -76 0 6 5 45 11 86 l10
76 -58 75 c-31 41 -60 75 -64 75 -4 0 -10 -35 -14 -78z"/>
<path d="M6030 6215 c0 -91 3 -108 23 -139 12 -19 40 -63 62 -98 l39 -63 7 55
c4 30 7 85 8 121 1 66 1 66 -60 147 -33 45 -65 82 -70 82 -5 0 -9 -47 -9 -105z"/>
<path d="M3351 6274 c-23 -29 -34 -101 -29 -199 l3 -70 53 80 c29 43 51 84 49
89 -3 6 -13 37 -23 69 -10 31 -21 57 -25 57 -4 0 -17 -11 -28 -26z"/>
<path d="M3536 6226 l-55 -74 22 -66 c11 -36 24 -66 28 -66 6 0 81 126 97 162
6 14 -19 118 -29 118 -5 0 -33 -33 -63 -74z"/>
<path d="M5874 6142 c6 -110 7 -113 47 -172 23 -33 45 -57 50 -54 5 3 9 46 9
95 0 90 0 90 -45 159 -67 102 -69 101 -61 -28z"/>
<path d="M5726 6063 c7 -92 10 -102 53 -175 25 -43 50 -78 55 -78 5 0 6 45 2
106 -7 104 -7 106 -53 175 -25 38 -50 69 -55 69 -5 0 -6 -40 -2 -97z"/>
<path d="M3786 6033 l-48 -98 20 -80 c11 -44 23 -92 26 -107 9 -42 22 -34 42
24 9 29 28 76 40 105 23 50 23 54 9 130 -21 109 -24 123 -33 123 -4 0 -29 -44
-56 -97z"/>
<path d="M3592 6017 l-43 -83 23 -82 c13 -45 28 -82 33 -82 6 0 21 26 33 58
44 106 47 124 31 198 -8 37 -19 69 -24 71 -6 2 -29 -34 -53 -80z"/>
<path d="M6397 6068 c-4 -18 -9 -60 -12 -93 -7 -58 -5 -63 40 -144 26 -47 51
-95 56 -108 18 -48 31 -28 59 100 9 43 8 52 -16 100 -37 72 -104 177 -114 177
-4 0 -10 -15 -13 -32z"/>
<path d="M3381 6002 c-33 -50 -51 -89 -51 -108 0 -39 42 -181 54 -184 6 -1 32
49 59 112 l49 113 -18 73 c-9 40 -23 72 -29 72 -7 0 -36 -35 -64 -78z"/>
<path d="M3972 6000 l-33 -79 16 -83 c9 -46 21 -87 26 -92 5 -6 21 18 38 56
l29 66 -11 106 c-6 62 -15 106 -21 106 -6 0 -26 -36 -44 -80z"/>
<path d="M6217 6028 c-4 -18 -7 -73 -8 -123 -2 -87 -1 -93 36 -162 34 -65 54
-88 55 -65 1 4 7 57 14 117 l14 110 -47 78 c-25 42 -49 77 -52 77 -4 0 -9 -15
-12 -32z"/>
<path d="M4134 5943 l-35 -78 11 -85 c15 -111 20 -127 31 -109 5 8 21 45 35
82 24 63 26 75 19 167 -4 55 -11 100 -16 100 -5 0 -25 -35 -45 -77z"/>
<path d="M6028 5993 c-2 -5 -5 -44 -7 -89 l-3 -80 52 -82 c29 -45 55 -82 60
-82 10 0 20 53 20 111 0 40 -9 63 -52 138 -51 86 -62 100 -70 84z"/>
<path d="M5890 5808 c0 -96 2 -106 30 -156 17 -29 35 -50 40 -47 6 4 10 50 10
103 0 92 -2 100 -32 149 -18 29 -36 53 -40 53 -5 0 -8 -46 -8 -102z"/>
<path d="M3486 5799 c-40 -91 -73 -193 -69 -209 12 -37 67 -150 73 -150 4 0
25 53 47 118 l39 117 -26 82 c-14 45 -28 85 -32 89 -4 4 -18 -17 -32 -47z"/>
<path d="M3661 5756 l-33 -85 33 -110 c18 -61 38 -111 44 -111 10 0 60 143 58
165 -6 47 -51 219 -59 222 -6 2 -25 -35 -43 -81z"/>
<path d="M5748 5825 c-3 -3 -3 -40 0 -83 4 -66 10 -85 40 -134 19 -32 39 -58
43 -58 5 0 9 32 9 71 0 65 -3 76 -41 140 -44 73 -43 72 -51 64z"/>
<path d="M3856 5713 l-38 -98 18 -77 c9 -43 22 -78 28 -78 6 0 26 39 45 86 33
85 33 86 21 162 -13 84 -19 102 -29 102 -4 0 -24 -44 -45 -97z"/>
<path d="M6368 5804 c-3 -5 -11 -61 -18 -124 -12 -115 -12 -115 14 -172 14
-32 30 -58 34 -58 5 0 26 37 47 82 l37 82 -40 80 c-47 93 -67 123 -74 110z"/>
<path d="M4026 5695 c-15 -32 -26 -63 -26 -71 0 -19 38 -176 44 -182 3 -3 16
17 27 44 21 47 22 54 10 149 -7 55 -16 104 -21 109 -5 5 -20 -15 -34 -49z"/>
<path d="M6017 5643 c-12 -121 -9 -140 31 -213 20 -38 43 -70 50 -70 6 0 12 3
12 8 0 4 5 47 11 95 l11 88 -42 69 c-61 101 -66 103 -73 23z"/>
<path d="M6187 5633 c-5 -64 -3 -71 31 -130 20 -35 39 -63 43 -63 8 0 19 52
19 94 1 35 -59 165 -76 166 -7 0 -13 -27 -17 -67z"/>
<path d="M4176 5618 c-27 -69 -28 -75 -16 -140 6 -37 15 -68 19 -68 3 0 19 29
35 65 26 60 27 70 19 136 -4 40 -13 74 -19 76 -5 2 -23 -29 -38 -69z"/>
<path d="M5890 5515 c0 -64 27 -145 49 -145 5 0 12 27 15 61 7 55 5 64 -21
105 -15 24 -31 44 -35 44 -5 0 -8 -29 -8 -65z"/>
<path d="M3561 5473 c-17 -54 -31 -102 -31 -107 0 -9 54 -91 88 -135 22 -27
24 -25 46 51 16 56 16 58 -9 133 -13 42 -29 94 -35 116 -6 21 -15 39 -20 39
-4 0 -22 -44 -39 -97z"/>
<path d="M5750 5464 c0 -92 2 -100 31 -146 17 -26 34 -48 39 -48 4 0 10 37 13
82 5 81 5 84 -29 140 -20 32 -39 60 -45 63 -5 4 -9 -33 -9 -91z"/>
<path d="M3940 5494 c-6 -14 -20 -48 -32 -76 -12 -27 -21 -55 -21 -62 0 -6 12
-51 28 -99 32 -103 40 -102 75 7 20 62 21 74 10 125 -29 139 -40 158 -60 105z"/>
<path d="M3755 5417 c-26 -83 -26 -83 -8 -131 10 -26 22 -48 27 -48 5 1 20 28
33 62 l25 61 -18 65 c-9 36 -21 67 -25 70 -5 2 -20 -33 -34 -79z"/>
<path d="M6157 5358 c-14 -92 -14 -105 0 -142 22 -58 26 -60 55 -29 18 19 29
47 36 88 10 58 9 62 -25 123 -19 34 -38 62 -42 62 -5 0 -15 -46 -24 -102z"/>
<path d="M6315 5395 c-9 -65 -1 -79 26 -46 22 27 23 40 7 76 -17 38 -26 31
-33 -30z"/>
<path d="M4085 5381 c-14 -43 -14 -58 -4 -110 7 -34 17 -61 21 -61 9 0 27 41
35 81 6 31 -15 139 -27 139 -5 0 -16 -22 -25 -49z"/>
<path d="M4225 5375 c-14 -32 -25 -68 -25 -82 0 -34 31 -153 40 -153 4 0 18
25 32 55 l25 55 -16 84 c-9 47 -19 88 -23 92 -4 3 -19 -19 -33 -51z"/>
<path d="M5660 5386 c0 -2 -15 -46 -34 -99 l-35 -95 36 -51 c25 -36 39 -48 44
-39 14 26 27 252 15 270 -10 16 -26 25 -26 14z"/>
<path d="M5997 5329 c-5 -55 -2 -69 26 -125 33 -67 42 -76 50 -46 21 73 18 92
-20 162 -20 39 -40 70 -44 70 -3 0 -9 -28 -12 -61z"/>
<path d="M5877 5253 c-5 -67 -3 -84 16 -120 12 -24 25 -43 28 -43 7 0 19 87
19 137 0 31 -35 103 -50 103 -4 0 -10 -35 -13 -77z"/>
<path d="M4355 5260 c-6 -20 49 -248 64 -263 4 -4 20 17 35 47 l27 55 -51 90
c-28 50 -55 91 -60 91 -5 0 -11 -9 -15 -20z"/>
<path d="M5728 5140 l-16 -130 26 -60 c25 -55 43 -72 56 -52 2 4 10 65 17 134
l12 127 -34 55 c-18 31 -36 56 -39 56 -4 0 -14 -58 -22 -130z"/>
<path d="M3820 5195 l-22 -65 22 -62 c20 -62 63 -110 79 -92 5 5 13 27 18 50
9 35 6 54 -21 137 -17 53 -36 97 -43 97 -6 0 -21 -29 -33 -65z"/>
<path d="M3698 5224 c-3 -5 -9 -23 -12 -39 -5 -25 -2 -35 19 -55 31 -29 39
-22 30 28 -7 43 -29 81 -37 66z"/>
<path d="M4016 5188 c-36 -86 -39 -113 -21 -167 9 -28 20 -51 25 -51 5 0 18
30 30 66 19 59 20 72 9 121 -7 29 -16 56 -21 59 -5 3 -15 -10 -22 -28z"/>
<path d="M4138 5148 c-13 -38 -12 -52 2 -116 10 -40 20 -76 24 -80 10 -9 24
17 32 55 7 35 -22 183 -36 183 -4 0 -14 -19 -22 -42z"/>
<path d="M4281 5089 l-23 -61 26 -95 c34 -122 53 -166 68 -161 6 2 18 33 26
68 14 61 13 67 -12 149 -14 47 -29 101 -34 120 -4 19 -12 36 -18 38 -5 2 -20
-24 -33 -58z"/>
<path d="M5986 5139 c-9 -30 -16 -149 -9 -149 11 0 56 31 64 43 4 5 -3 32 -16
59 -27 58 -33 66 -39 47z"/>
<path d="M6120 5125 c0 -8 5 -15 10 -15 6 0 10 7 10 15 0 8 -4 15 -10 15 -5 0
-10 -7 -10 -15z"/>
<path d="M5525 5038 c-21 -46 -53 -107 -71 -136 -19 -29 -34 -55 -34 -58 0
-10 189 1 199 11 6 6 18 41 27 77 l16 66 -38 61 c-22 33 -44 61 -50 61 -6 0
-28 -37 -49 -82z"/>
<path d="M5868 5054 c-8 -14 -20 -134 -13 -134 17 0 65 32 65 43 -1 20 -47
101 -52 91z"/>
<path d="M4475 4970 l-28 -70 28 -66 c15 -36 34 -68 42 -71 14 -5 171 15 186
24 4 2 -14 30 -41 61 -27 31 -70 87 -96 125 -26 37 -51 67 -55 67 -4 0 -20
-31 -36 -70z"/>
<path d="M4080 4966 c-30 -80 -23 -107 34 -122 24 -6 28 -4 23 12 -3 11 -13
45 -21 77 -9 31 -19 57 -22 57 -2 0 -9 -11 -14 -24z"/>
<path d="M3950 4940 c0 -5 5 -10 10 -10 6 0 10 5 10 10 0 6 -4 10 -10 10 -5 0
-10 -4 -10 -10z"/>
<path d="M4207 4873 c-9 -30 -11 -52 -5 -60 10 -13 58 -27 65 -19 8 7 -29 126
-39 126 -4 0 -14 -21 -21 -47z"/>
<path d="M5685 4890 c-7 -12 2 -30 16 -30 5 0 9 9 9 20 0 21 -15 27 -25 10z"/>
<path d="M4414 4789 c-8 -14 11 -33 25 -25 11 7 4 36 -9 36 -5 0 -12 -5 -16
-11z"/>
<path d="M4934 4746 c-180 -44 -215 -186 -81 -324 l42 -43 -1 -142 c0 -156 -8
-194 -100 -501 -25 -82 -43 -151 -40 -154 15 -15 190 161 255 256 131 194 241
506 241 686 0 102 -22 163 -71 199 -51 37 -150 46 -245 23z"/>
<path d="M5589 4521 c-50 -34 -94 -84 -170 -196 -65 -94 -198 -327 -192 -337
2 -4 35 24 73 62 149 147 315 186 537 124 36 -10 58 36 56 120 -1 79 -18 129
-63 186 -60 76 -161 93 -241 41z"/>
<path d="M5419 3960 c-26 -16 -67 -49 -91 -73 -45 -42 -45 -43 -47 -112 -1
-38 -9 -101 -17 -138 -16 -67 -19 -72 -119 -176 -57 -58 -106 -103 -109 -100
-3 3 15 39 41 80 72 115 106 195 98 227 -16 63 -64 78 -134 42 -54 -27 -88
-71 -139 -180 -139 -299 -170 -348 -294 -466 -77 -72 -158 -139 -158 -130 0 3
20 33 44 68 99 143 135 248 143 423 9 184 -20 276 -100 316 -74 38 -163 21
-206 -39 -49 -69 -33 -137 53 -221 46 -44 57 -62 67 -106 21 -95 -20 -259
-102 -401 -60 -106 -185 -191 -314 -215 -57 -10 -168 -8 -297 7 -67 8 -104 -5
-132 -43 -42 -57 -13 -117 91 -184 113 -74 251 -119 364 -119 91 0 251 34 310
66 125 69 251 254 172 254 -10 0 -66 -27 -123 -60 -284 -163 -360 -182 -496
-125 -56 23 -33 34 97 50 148 19 236 47 325 107 97 65 146 85 369 153 299 91
407 143 561 268 168 137 274 268 274 338 0 70 -29 75 -136 24 -40 -19 -75 -35
-78 -35 -18 0 89 158 152 223 l75 77 -5 79 c-8 140 -52 179 -139 121z"/>
<path d="M6205 3263 c-71 -9 -241 -46 -332 -72 -286 -82 -417 -154 -663 -365
-134 -115 -212 -157 -405 -217 -71 -23 -136 -46 -142 -51 -24 -19 -13 -50 31
-94 41 -42 46 -44 102 -44 41 0 105 14 209 45 252 76 424 82 552 20 53 -27
113 -85 113 -110 0 -8 -17 -30 -37 -49 -34 -31 -38 -39 -38 -85 0 -67 19 -86
84 -85 119 4 251 104 251 192 0 92 -86 163 -275 226 -57 19 -107 45 -87 46 20
0 150 -45 215 -74 83 -38 171 -31 220 18 62 63 -60 179 -216 206 -81 15 -240
1 -380 -31 -49 -12 -91 -19 -93 -16 -13 13 256 147 371 185 139 47 303 45 492
-4 111 -29 150 -47 219 -106 70 -58 120 -120 146 -179 11 -27 36 -63 56 -80
30 -27 41 -31 76 -27 75 9 213 115 250 192 49 103 35 246 -24 246 -10 0 -54
-16 -98 -35 -113 -50 -185 -55 -287 -21 -97 33 -364 148 -365 158 0 18 119 20
210 3 183 -34 205 -36 245 -30 57 9 118 48 141 90 l19 36 -31 29 c-63 56 -367
104 -529 83z"/>
<path d="M7825 8187 c-39 -18 -102 -88 -126 -141 -21 -47 -25 -123 -7 -161 13
-29 55 -55 87 -55 54 0 111 61 111 119 0 17 -9 49 -20 71 -18 35 -18 40 -4 55
21 21 52 11 87 -28 24 -28 27 -39 27 -102 0 -59 -5 -78 -30 -121 -35 -62 -116
-135 -186 -170 -61 -30 -156 -42 -239 -32 -88 12 -117 24 -192 79 -72 53 -115
61 -121 25 -7 -35 22 -68 98 -112 177 -104 337 -111 512 -23 82 42 185 145
223 224 63 131 39 289 -54 351 -49 32 -121 41 -166 21z"/>
<path d="M8620 7961 c-179 -81 -269 -130 -310 -167 -43 -39 -100 -146 -100
-186 0 -41 34 -63 98 -63 96 0 145 32 326 214 88 87 164 169 168 182 6 14 5
33 -1 46 -16 35 -62 29 -181 -26z"/>
<path d="M1468 7964 c-30 -9 -39 -53 -24 -117 16 -67 52 -123 110 -170 60 -50
103 -69 280 -126 180 -57 221 -67 230 -53 12 20 -151 237 -258 343 -76 76
-170 123 -256 125 -36 2 -72 0 -82 -2z"/>
<path d="M8025 7520 c-62 -15 -101 -39 -147 -87 -116 -125 -132 -259 -31 -257
58 2 181 58 240 110 92 80 106 197 27 230 -36 15 -44 16 -89 4z"/>
<path d="M1507 7439 c-60 -32 -91 -89 -95 -175 -4 -62 0 -81 22 -129 36 -79
124 -168 208 -209 90 -45 160 -59 283 -54 92 3 107 7 169 38 77 39 207 154
226 199 14 35 0 71 -29 71 -11 0 -46 -31 -82 -71 -75 -84 -112 -110 -203 -138
-87 -27 -169 -27 -249 0 -153 51 -234 137 -244 258 -4 48 -1 60 19 83 13 16
34 29 48 30 25 3 25 2 25 -67 0 -79 12 -107 58 -135 38 -24 68 -25 106 -5 70
36 64 149 -12 232 -79 86 -173 113 -250 72z"/>
<path d="M8510 7436 c-140 -39 -251 -138 -330 -295 -43 -83 -52 -198 -25 -317
27 -124 60 -168 105 -144 26 14 26 16 -11 124 -27 76 -31 100 -26 151 9 89 42
184 85 240 43 57 135 125 201 149 127 45 271 -12 271 -107 0 -14 -7 -30 -15
-37 -12 -10 -22 -6 -56 23 -55 47 -87 53 -144 28 -72 -32 -89 -110 -35 -161
107 -100 344 -20 365 125 14 90 -66 195 -170 224 -52 14 -158 13 -215 -3z"/>
<path d="M9030 7082 c-77 -26 -84 -31 -201 -128 -150 -125 -219 -191 -219
-208 0 -20 36 -21 200 -1 247 29 310 47 412 122 59 43 107 131 90 167 -26 57
-178 82 -282 48z"/>
<path d="M748 7039 c-48 -27 -8 -79 177 -226 167 -134 213 -156 314 -157 125
-1 159 39 111 133 -42 84 -101 116 -394 217 -130 44 -176 52 -208 33z"/>
<path d="M1524 6706 c-35 -16 -64 -51 -64 -79 0 -28 35 -89 72 -124 57 -55
120 -76 226 -77 91 -1 94 0 118 27 38 45 31 65 -48 141 -113 109 -220 148
-304 112z"/>
<path d="M8978 6630 c-43 -13 -93 -47 -131 -90 -55 -60 -61 -137 -15 -180 45
-41 97 -38 149 8 27 24 33 37 38 93 5 55 9 64 27 67 30 4 64 -42 64 -87 0 -44
-39 -128 -71 -157 -73 -63 -195 -100 -309 -92 -54 4 -88 14 -143 41 -90 44
-147 100 -196 192 -38 70 -60 87 -86 65 -27 -22 -16 -65 33 -141 114 -173 233
-239 433 -239 121 0 204 24 291 84 174 118 208 329 69 423 -36 24 -99 29 -153
13z"/>
<path d="M1117 6370 c-71 -13 -132 -46 -177 -97 -92 -105 -72 -241 45 -294 52
-24 173 -26 221 -3 74 35 107 117 69 171 -19 28 -77 47 -119 39 -33 -6 -40
-12 -96 -76 l-30 -35 -20 24 c-25 29 -25 59 -3 91 63 89 171 120 294 84 136
-40 222 -111 282 -233 31 -64 32 -70 32 -191 0 -69 4 -131 8 -137 12 -19 42
-16 62 7 15 17 18 38 18 133 -1 136 -28 226 -93 313 -111 147 -323 235 -493
204z"/>
<path d="M25015 6340 c-33 -11 -96 -24 -140 -30 -217 -27 -255 -40 -255 -84 0
-14 3 -32 6 -41 7 -17 74 -55 97 -55 8 0 27 -10 42 -22 16 -13 47 -32 69 -43
28 -14 47 -33 61 -60 19 -37 20 -60 20 -325 0 -279 -1 -286 -23 -333 -15 -30
-32 -49 -45 -52 -12 -2 -105 -7 -207 -10 -272 -8 -351 -16 -384 -40 -16 -11
-40 -27 -54 -37 -13 -9 -59 -52 -101 -95 -61 -63 -92 -107 -153 -220 -58 -105
-78 -152 -78 -180 -1 -21 -7 -74 -15 -118 -21 -116 -19 -156 16 -259 17 -50
35 -117 39 -149 12 -82 58 -155 165 -262 81 -82 99 -95 186 -133 134 -58 181
-68 268 -53 86 14 162 46 263 112 96 63 121 63 158 -1 45 -77 101 -89 260 -56
99 21 201 71 253 124 33 34 36 40 24 56 -9 12 -40 23 -88 32 -94 18 -172 56
-205 100 -26 34 -27 37 -19 127 9 93 11 453 6 847 -2 143 3 300 16 468 11 147
16 274 12 300 -4 26 -2 125 4 220 11 165 10 176 -8 210 -41 74 -97 92 -190 62z
m-304 -1236 c155 -50 151 -47 199 -163 28 -69 30 -79 20 -130 -5 -30 -10 -100
-10 -155 0 -56 -7 -155 -15 -221 -8 -66 -15 -155 -15 -198 0 -77 -1 -80 -42
-133 -68 -87 -218 -154 -269 -121 -13 9 -54 19 -92 22 -56 6 -78 14 -127 48
-47 31 -60 45 -60 65 0 17 -14 39 -43 67 -59 56 -99 174 -99 292 0 49 5 91 14
106 7 13 20 37 29 53 11 19 21 78 29 174 16 194 34 227 150 286 66 33 125 52
163 53 16 1 91 -20 168 -45z"/>
<path d="M11744 6270 c-37 -15 -66 -61 -60 -94 12 -57 86 -114 174 -136 65
-15 104 -46 154 -124 l38 -59 0 -156 c0 -86 5 -174 10 -196 13 -59 42 -631 35
-695 -7 -61 -30 -160 -47 -202 -9 -23 -16 -28 -46 -28 -32 0 -45 11 -146 116
-61 64 -115 127 -119 140 -5 12 -37 40 -72 62 -42 27 -72 54 -89 84 -14 23
-61 80 -104 125 -43 45 -103 117 -133 161 -30 44 -75 95 -99 114 -24 18 -96
101 -159 184 -64 83 -141 172 -171 198 -72 62 -107 102 -132 151 -11 22 -46
67 -77 101 -31 33 -80 88 -109 122 -85 99 -90 101 -332 95 -113 -3 -215 -9
-227 -14 -12 -4 -34 -27 -49 -49 -27 -40 -27 -42 -11 -76 31 -64 94 -122 152
-138 29 -9 58 -22 64 -30 7 -8 35 -20 64 -26 29 -7 63 -18 77 -25 64 -33 128
-134 130 -205 1 -19 -4 -69 -9 -110 -6 -41 -15 -151 -21 -245 -6 -93 -15 -222
-21 -285 -6 -63 -12 -182 -13 -265 -1 -82 -6 -271 -10 -420 -9 -258 -10 -272
-32 -307 -30 -48 -42 -54 -146 -72 -97 -17 -141 -35 -164 -70 -20 -31 -21 -83
-2 -102 25 -25 240 -38 391 -24 101 9 158 9 273 -1 115 -10 155 -10 197 0 28
6 70 15 92 19 36 6 40 10 43 40 3 26 -5 43 -34 79 -44 54 -73 67 -198 92 -108
22 -146 39 -172 78 -17 26 -18 59 -20 463 -2 256 -7 453 -13 480 -17 72 -14
284 4 327 20 49 43 73 68 73 11 0 52 -30 91 -67 39 -36 92 -86 119 -110 26
-25 54 -57 62 -73 8 -15 35 -40 60 -54 25 -15 45 -30 45 -35 0 -4 29 -37 63
-72 35 -36 78 -92 96 -125 18 -34 46 -69 66 -83 19 -13 48 -47 65 -75 16 -29
52 -71 79 -95 28 -23 96 -103 152 -178 56 -75 145 -184 198 -242 53 -58 124
-140 158 -181 140 -173 224 -215 296 -147 l34 32 7 155 c4 86 5 162 2 170 -3
8 -10 67 -16 131 -9 94 -8 133 4 210 8 52 17 191 21 309 3 118 11 236 17 261
8 33 8 67 -1 125 -9 62 -8 134 4 339 9 143 18 272 21 287 8 37 65 101 116 131
24 13 74 35 113 47 89 29 125 64 125 118 0 47 -9 56 -75 71 -39 9 -85 9 -210
-2 -134 -12 -191 -12 -350 -1 -221 15 -262 16 -291 4z"/>
<path d="M25940 6131 c-76 -7 -108 -26 -149 -87 -41 -63 -56 -132 -42 -191 18
-70 38 -102 114 -180 61 -63 75 -73 105 -73 135 0 229 102 239 261 6 78 6 78
-38 155 -24 42 -57 87 -72 100 -30 25 -38 26 -157 15z"/>
<path d="M9183 6026 c-57 -18 -135 -77 -158 -120 -17 -32 -17 -36 -3 -59 24
-36 84 -61 159 -65 59 -4 83 2 262 62 226 75 254 88 269 122 10 21 8 28 -10
47 -22 21 -30 22 -250 24 -167 2 -238 -1 -269 -11z"/>
<path d="M8687 5909 c-98 -23 -227 -121 -227 -171 0 -47 28 -68 105 -79 127
-19 240 4 299 59 58 54 65 113 20 154 -39 35 -133 52 -197 37z"/>
<path d="M629 5867 c-83 -19 -149 -69 -149 -112 0 -36 62 -100 128 -132 51
-25 67 -28 162 -28 89 0 127 6 245 37 181 48 220 62 220 79 0 20 -68 50 -244
109 -172 58 -262 70 -362 47z"/>
<path d="M9010 5615 c-200 -55 -320 -182 -376 -397 -21 -79 -11 -118 30 -118
31 0 33 3 51 90 22 103 44 147 109 218 70 74 153 119 250 133 158 22 285 -35
333 -149 19 -47 -6 -112 -44 -112 -13 0 -17 7 -44 79 -23 62 -117 92 -174 55
-57 -37 -51 -115 14 -181 61 -60 198 -85 274 -48 124 59 113 260 -20 361 -69
53 -145 77 -253 80 -63 3 -113 -1 -150 -11z"/>
<path d="M1571 5542 c-5 -10 -14 -47 -21 -82 -17 -97 -51 -159 -129 -233 -95
-89 -151 -111 -291 -111 -98 -1 -108 1 -160 29 -60 33 -120 110 -120 155 0 62
61 94 81 43 34 -86 38 -91 83 -108 137 -53 205 107 84 198 -69 52 -184 72
-251 43 -68 -28 -114 -114 -103 -189 28 -181 249 -299 476 -253 230 47 359
179 421 428 10 41 9 52 -5 73 -19 29 -51 33 -65 7z"/>
<path d="M16631 5443 c-14 -3 -34 -11 -45 -18 -12 -7 -52 -16 -91 -20 -106
-10 -152 -35 -244 -130 -90 -92 -117 -140 -178 -324 -32 -94 -35 -114 -30
-177 4 -59 13 -87 51 -161 25 -49 46 -97 46 -105 0 -22 29 -44 85 -65 36 -13
51 -24 53 -40 5 -34 -43 -100 -89 -124 -56 -28 -136 -105 -161 -153 -17 -34
-20 -52 -15 -113 8 -108 37 -151 128 -197 40 -20 78 -36 85 -36 8 0 14 -11 14
-25 0 -20 -15 -35 -82 -78 -94 -61 -190 -158 -231 -235 -28 -51 -28 -55 -18
-120 6 -37 13 -88 16 -113 5 -56 36 -138 76 -201 21 -32 44 -53 76 -68 25 -11
63 -32 84 -46 97 -61 113 -63 431 -64 336 -1 380 5 543 85 153 74 265 182 334
322 48 95 60 163 50 276 -14 165 -33 214 -118 298 -31 30 -66 70 -79 87 -15
21 -37 35 -65 43 -23 6 -60 22 -82 37 -22 15 -65 32 -95 40 -30 7 -66 15 -79
19 -12 3 -47 0 -75 -7 -41 -9 -108 -10 -295 -3 -218 9 -244 11 -269 30 -52 38
-34 168 32 232 l35 34 140 -11 c80 -6 154 -7 173 -2 18 5 71 14 118 20 122 17
170 29 216 56 59 33 138 123 176 201 l33 67 3 198 c4 243 -2 233 146 222 117
-8 150 2 167 53 16 49 6 149 -19 182 -36 49 -79 65 -167 66 -72 0 -84 -3 -115
-27 -50 -38 -119 -68 -158 -68 -46 0 -140 48 -160 82 -18 31 -49 42 -142 54
-30 4 -64 13 -75 20 -19 13 -83 16 -134 7z m145 -222 c47 -29 72 -65 141 -201
26 -51 28 -64 28 -170 0 -126 -19 -202 -57 -236 -11 -11 -27 -34 -35 -52 -17
-42 -60 -67 -145 -87 -100 -23 -144 -20 -164 9 -8 14 -29 28 -46 31 -38 9 -58
53 -58 128 0 37 -8 69 -25 103 -28 56 -31 83 -11 122 7 15 21 61 30 102 23 98
41 135 80 159 17 11 44 33 60 50 17 17 37 31 45 31 9 1 32 9 51 20 46 25 52
25 106 -9z m-18 -1521 c31 -12 77 -20 115 -20 85 -1 137 -26 225 -113 81 -80
122 -153 122 -220 0 -34 -6 -45 -41 -76 -22 -20 -80 -75 -127 -122 -78 -78
-91 -87 -132 -92 -25 -3 -70 -14 -100 -26 -70 -26 -149 -26 -220 0 -30 11 -91
32 -135 47 -67 21 -88 34 -129 76 -80 82 -91 115 -91 289 l0 148 35 30 c64 53
134 81 223 89 149 13 199 11 255 -10z"/>
<path d="M21375 5373 c-66 -26 -106 -50 -149 -90 -63 -56 -127 -83 -156 -65
-8 5 -25 37 -38 71 -20 51 -31 65 -66 86 -24 14 -50 25 -60 25 -29 0 -180 -81
-217 -116 -19 -19 -60 -47 -90 -63 -30 -15 -61 -40 -69 -55 -15 -27 -14 -28
24 -62 22 -19 48 -34 58 -34 29 0 94 -72 112 -125 21 -63 21 -146 -1 -193 -15
-31 -18 -83 -23 -342 -4 -200 -11 -318 -19 -343 -17 -53 -72 -111 -121 -127
-23 -8 -48 -23 -56 -34 -34 -49 -25 -138 16 -149 10 -2 56 1 101 8 56 8 162
10 320 7 l236 -5 32 29 c23 21 32 38 33 62 1 41 -15 58 -94 97 -71 34 -66 25
-98 200 -34 183 -36 273 -11 378 12 49 21 108 21 131 0 47 35 251 49 289 16
40 69 94 125 126 49 28 56 30 126 24 47 -4 99 -16 140 -34 76 -32 93 -57 116
-176 19 -100 19 -433 0 -550 -8 -49 -19 -135 -26 -193 -15 -138 -49 -211 -118
-255 -39 -25 -47 -35 -47 -59 0 -23 7 -34 32 -49 72 -41 128 -49 396 -54 l257
-5 45 45 c51 51 55 73 20 115 -33 39 -83 62 -137 62 -51 0 -77 21 -103 82 -18
45 -21 316 -4 413 15 91 22 491 9 584 -18 134 -36 180 -90 233 -58 56 -173
113 -267 133 -95 20 -107 19 -208 -22z"/>
<path d="M27365 5373 c-66 -26 -106 -50 -149 -90 -63 -56 -127 -83 -156 -65
-8 5 -25 37 -38 71 -20 51 -31 65 -66 86 -24 14 -50 25 -60 25 -29 0 -180 -81
-217 -116 -19 -19 -60 -47 -90 -63 -30 -15 -61 -40 -69 -55 -15 -27 -14 -28
24 -62 22 -19 48 -34 58 -34 29 0 94 -72 112 -125 21 -63 21 -146 -1 -193 -15
-31 -18 -83 -23 -342 -4 -200 -11 -318 -19 -343 -17 -53 -72 -111 -121 -127
-23 -8 -48 -23 -56 -34 -34 -49 -25 -138 16 -149 10 -2 56 1 101 8 56 8 162
10 320 7 l236 -5 32 29 c23 21 32 38 33 62 1 41 -15 58 -94 97 -71 34 -66 25
-98 200 -34 183 -36 273 -11 378 12 49 21 108 21 131 0 47 35 251 49 289 16
40 69 94 125 126 49 28 56 30 126 24 47 -4 99 -16 140 -34 76 -32 93 -57 116
-176 19 -100 19 -433 0 -550 -8 -49 -19 -135 -26 -193 -15 -138 -49 -211 -118
-255 -39 -25 -47 -35 -47 -59 0 -23 7 -34 32 -49 72 -41 128 -49 396 -54 l257
-5 45 45 c51 51 55 73 20 115 -33 39 -83 62 -137 62 -51 0 -77 21 -103 82 -18
45 -21 316 -4 413 15 91 22 491 9 584 -18 134 -36 180 -90 233 -58 56 -173
113 -267 133 -95 20 -107 19 -208 -22z"/>
<path d="M18510 5365 c-58 -19 -118 -37 -133 -40 -31 -6 -117 -80 -117 -100 0
-7 -9 -23 -19 -36 -18 -22 -21 -22 -35 -9 -9 9 -26 36 -38 60 -29 58 -72 80
-153 80 -53 0 -65 -4 -102 -34 -23 -18 -57 -39 -75 -46 -46 -18 -88 -60 -88
-86 0 -13 11 -31 26 -41 62 -44 85 -68 115 -119 l31 -55 -7 -152 c-5 -132 -4
-161 12 -217 14 -49 17 -74 10 -95 -6 -17 -13 -105 -16 -197 -7 -193 -7 -192
-112 -271 -110 -83 -129 -105 -129 -153 0 -61 13 -68 146 -70 62 -2 130 -8
151 -13 22 -6 139 -11 270 -11 l231 0 31 31 c67 67 23 136 -114 179 l-77 25
-31 60 -31 60 1 240 c1 174 6 260 17 313 9 40 16 99 17 130 0 31 6 99 12 150
14 109 18 112 110 115 55 1 68 -2 122 -35 74 -45 140 -62 209 -55 66 7 111 29
120 59 14 51 18 175 7 209 -12 38 -63 91 -125 133 -52 35 -103 33 -236 -9z"/>
<path d="M13410 5379 c-50 -6 -83 -17 -140 -50 -180 -102 -194 -113 -290 -245
-50 -68 -101 -147 -114 -176 -57 -130 -74 -374 -35 -513 10 -38 26 -96 34
-128 19 -74 150 -283 202 -323 21 -16 61 -49 88 -75 63 -59 89 -72 221 -110
117 -34 138 -34 274 -4 82 18 122 38 250 129 101 72 105 76 126 144 19 63 11
107 -21 128 -21 14 -30 13 -107 -15 -45 -16 -105 -39 -132 -51 -60 -27 -189
-37 -264 -21 -63 13 -166 90 -264 197 -53 58 -68 82 -88 144 -43 134 -28 281
35 340 23 22 29 23 377 31 280 8 365 13 412 26 73 21 96 52 96 132 0 49 -4 60
-43 110 -24 31 -58 80 -76 109 -54 85 -122 139 -205 163 -39 11 -98 29 -131
39 -77 23 -125 28 -205 19z m188 -155 c36 -4 65 -14 79 -27 30 -27 53 -99 53
-164 0 -64 -24 -95 -86 -112 -54 -15 -161 -13 -209 4 -22 8 -64 15 -93 15 -70
0 -119 21 -128 54 -21 84 60 186 185 233 35 13 53 13 199 -3z"/>
<path d="M19530 5365 c-36 -13 -77 -24 -93 -25 -15 0 -69 -21 -120 -46 -50
-26 -112 -52 -137 -58 -38 -9 -52 -21 -97 -79 -89 -116 -93 -172 -17 -244 l44
-43 83 0 c77 0 85 2 134 35 38 25 54 44 63 72 27 83 68 149 110 177 35 23 49
27 103 24 l62 -3 42 -63 c54 -80 64 -115 70 -232 6 -131 -6 -152 -113 -205
-45 -22 -88 -45 -95 -52 -8 -6 -40 -14 -72 -18 -47 -6 -70 -16 -117 -51 -33
-24 -79 -53 -102 -64 -121 -57 -252 -206 -283 -322 -23 -85 -17 -137 25 -221
53 -107 83 -136 165 -155 39 -9 100 -17 136 -17 59 0 76 5 182 57 65 32 120
64 123 73 3 8 21 24 39 35 44 27 64 18 145 -65 94 -95 110 -104 237 -117 102
-10 110 -10 149 10 99 50 194 171 180 227 -9 37 -45 55 -143 72 -163 28 -183
55 -183 245 1 68 7 152 15 188 8 36 15 94 15 130 1 36 7 83 15 105 20 55 11
279 -15 355 -10 30 -21 72 -24 93 -14 79 -113 149 -264 187 -102 26 -181 24
-262 -5z m198 -973 c2 -129 2 -135 -25 -183 -49 -91 -106 -116 -218 -94 -111
21 -156 50 -155 102 1 25 88 155 125 185 50 41 148 105 180 116 17 6 44 10 60
9 l30 -2 3 -133z"/>
<path d="M22870 5365 c-36 -13 -77 -24 -93 -25 -15 0 -69 -21 -120 -46 -50
-26 -112 -52 -137 -58 -38 -9 -52 -21 -97 -79 -89 -116 -93 -172 -17 -244 l44
-43 83 0 c77 0 85 2 134 35 38 25 54 44 63 72 27 83 68 149 110 177 35 23 49
27 103 24 l62 -3 42 -63 c54 -80 64 -115 70 -232 6 -131 -6 -152 -113 -205
-45 -22 -88 -45 -95 -52 -8 -6 -40 -14 -72 -18 -47 -6 -70 -16 -117 -51 -33
-24 -79 -53 -102 -64 -121 -57 -252 -206 -283 -322 -23 -85 -17 -137 25 -221
53 -107 83 -136 165 -155 39 -9 100 -17 136 -17 59 0 76 5 182 57 65 32 120
64 123 73 3 8 21 24 39 35 44 27 64 18 145 -65 94 -95 110 -104 237 -117 102
-10 110 -10 149 10 99 50 194 171 180 227 -9 37 -45 55 -143 72 -163 28 -183
55 -183 245 1 68 7 152 15 188 8 36 15 94 15 130 1 36 7 83 15 105 20 55 11
279 -15 355 -10 30 -21 72 -24 93 -14 79 -113 149 -264 187 -102 26 -181 24
-262 -5z m198 -973 c2 -129 2 -135 -25 -183 -49 -91 -106 -116 -218 -94 -111
21 -156 50 -155 102 1 25 88 155 125 185 50 41 148 105 180 116 17 6 44 10 60
9 l30 -2 3 -133z"/>
<path d="M28860 5365 c-36 -13 -77 -24 -93 -25 -15 0 -69 -21 -120 -46 -50
-26 -112 -52 -137 -58 -38 -9 -52 -21 -97 -79 -89 -116 -93 -172 -17 -244 l44
-43 83 0 c77 0 85 2 134 35 38 25 54 44 63 72 27 83 68 149 110 177 35 23 49
27 103 24 l62 -3 42 -63 c54 -80 64 -115 70 -232 6 -131 -6 -152 -113 -205
-45 -22 -88 -45 -95 -52 -8 -6 -40 -14 -72 -18 -47 -6 -70 -16 -117 -51 -33
-24 -79 -53 -102 -64 -121 -57 -252 -206 -283 -322 -23 -85 -17 -137 25 -221
53 -107 83 -136 165 -155 39 -9 100 -17 136 -17 59 0 76 5 182 57 65 32 120
64 123 73 3 8 21 24 39 35 44 27 64 18 145 -65 94 -95 110 -104 237 -117 102
-10 110 -10 149 10 99 50 194 171 180 227 -9 37 -45 55 -143 72 -163 28 -183
55 -183 245 1 68 7 152 15 188 8 36 15 94 15 130 1 36 7 83 15 105 20 55 11
279 -15 355 -10 30 -21 72 -24 93 -14 79 -113 149 -264 187 -102 26 -181 24
-262 -5z m198 -973 c2 -129 2 -135 -25 -183 -49 -91 -106 -116 -218 -94 -111
21 -156 50 -155 102 1 25 88 155 125 185 50 41 148 105 180 116 17 6 44 10 60
9 l30 -2 3 -133z"/>
<path d="M14940 5324 c-19 -8 -76 -26 -127 -39 -146 -38 -305 -130 -372 -214
-50 -65 -137 -244 -152 -316 -7 -33 -15 -141 -17 -239 -3 -206 -1 -214 94
-387 44 -78 71 -113 150 -188 52 -50 113 -103 135 -118 96 -64 350 -92 534
-59 110 20 144 33 190 75 22 20 72 57 110 83 45 29 79 61 95 88 14 23 42 68
63 100 20 31 54 107 74 166 36 108 37 111 41 304 3 174 2 203 -16 265 -12 39
-25 88 -31 110 -11 39 -67 107 -128 155 -15 12 -35 36 -43 53 -11 23 -26 34
-58 43 -23 7 -55 22 -71 33 -22 16 -44 21 -93 21 -52 0 -70 5 -103 27 -31 21
-56 28 -124 34 -48 4 -93 10 -101 13 -8 3 -31 -2 -50 -10z m239 -219 c122
-133 200 -325 220 -546 15 -161 4 -230 -54 -345 -38 -77 -60 -106 -124 -166
-87 -82 -153 -119 -220 -126 -43 -4 -49 -1 -104 47 -32 28 -64 51 -72 51 -30
0 -67 51 -128 175 -80 161 -102 242 -94 346 8 99 33 217 57 271 11 24 20 58
20 76 0 26 12 44 60 94 33 33 60 64 60 68 0 15 77 65 125 82 31 11 81 17 131
18 l81 0 42 -45z"/>
<path d="M25920 5253 c-177 -83 -200 -96 -235 -127 -35 -29 -37 -35 -31 -69 4
-23 30 -66 71 -117 35 -45 69 -98 75 -118 15 -54 12 -141 -6 -201 -8 -30 -13
-63 -10 -75 3 -11 -1 -123 -8 -247 -14 -257 -12 -253 -102 -320 -30 -23 -59
-50 -64 -60 -15 -27 -12 -72 6 -98 32 -46 71 -53 329 -59 216 -4 244 -3 267
12 35 23 62 80 53 114 -3 15 -45 66 -92 114 l-86 87 8 93 c4 51 11 145 16 208
5 63 11 141 15 174 4 44 2 68 -11 96 -12 27 -15 52 -11 87 12 103 27 410 21
457 -10 77 -17 86 -78 85 -38 0 -72 -10 -127 -36z"/>
<path d="M9465 5106 c-5 -3 -82 -28 -170 -56 -88 -29 -178 -61 -199 -72 -38
-19 -39 -21 -21 -35 22 -16 100 -41 265 -85 203 -55 371 -39 452 42 21 21 38
47 38 59 0 30 -60 93 -116 120 -38 19 -67 25 -143 27 -53 2 -100 2 -106 0z"/>
<path d="M8630 4921 c-14 -27 -13 -79 6 -169 36 -180 134 -296 314 -374 70
-30 83 -33 185 -32 128 0 193 20 264 80 118 102 119 268 0 332 -38 20 -54 23
-119 20 -91 -6 -148 -32 -185 -85 -32 -48 -32 -83 0 -121 31 -37 70 -47 124
-32 35 9 46 19 72 65 34 61 50 67 75 30 25 -38 11 -84 -39 -133 -55 -54 -101
-72 -185 -72 -177 0 -313 84 -394 244 -25 49 -32 79 -38 151 -3 50 -10 96 -14
103 -11 19 -54 14 -66 -7z"/>
<path d="M1245 4892 c-49 -23 -95 -75 -95 -107 0 -68 115 -131 223 -123 67 6
180 51 216 87 26 26 28 82 4 103 -33 29 -117 50 -213 55 -79 3 -102 1 -135
-15z"/>
<path d="M680 4864 c-47 -7 -129 -20 -183 -29 -110 -17 -152 -34 -162 -66 -12
-38 29 -63 142 -88 238 -51 346 -61 425 -37 56 16 135 69 143 96 12 39 -34 90
-109 122 -49 20 -137 21 -256 2z"/>
<path d="M1065 4503 c-188 -40 -326 -178 -327 -328 0 -76 21 -126 70 -163 30
-23 45 -27 101 -27 74 1 110 16 173 73 74 67 90 151 39 203 -33 33 -75 38
-119 15 -47 -24 -63 -50 -70 -117 -8 -75 -27 -87 -67 -43 -33 35 -33 85 1 152
31 63 79 104 153 132 126 46 234 43 346 -10 87 -41 146 -97 188 -178 42 -79
58 -96 85 -87 48 15 32 77 -47 182 -90 119 -172 173 -305 198 -94 18 -130 18
-221 -2z"/>
<path d="M8675 4356 c-5 -3 -32 -7 -59 -11 -56 -8 -106 -48 -106 -86 0 -32 60
-83 148 -126 68 -33 86 -37 153 -38 68 0 79 3 112 28 20 15 40 39 43 53 13 53
-38 118 -123 156 -39 17 -146 32 -168 24z"/>
<path d="M9177 4230 c-123 -31 -138 -95 -41 -180 55 -48 92 -60 264 -85 248
-37 306 -40 335 -21 29 19 33 56 8 78 -26 23 -162 96 -293 157 -123 57 -194
71 -273 51z"/>
<path d="M8712 3979 c-101 -12 -188 -55 -266 -133 -106 -107 -147 -186 -111
-216 25 -21 49 -6 91 58 74 114 145 168 258 198 139 37 312 -8 399 -105 40
-44 72 -134 62 -174 -9 -33 -49 -70 -72 -65 -15 3 -19 14 -21 68 -3 70 -20 98
-76 127 -34 18 -86 11 -109 -15 -67 -74 -13 -203 111 -266 109 -55 212 -21
257 86 48 116 -20 270 -159 360 -103 66 -225 92 -364 77z"/>
<path d="M1650 3955 c-9 -11 -10 -29 -1 -78 15 -87 14 -154 -4 -214 -33 -112
-104 -204 -194 -252 -155 -82 -269 -81 -358 5 -45 42 -57 86 -31 112 20 20 37
14 83 -34 43 -46 45 -47 95 -42 69 7 105 41 105 99 0 34 -6 46 -37 74 -67 62
-179 71 -274 21 -65 -33 -87 -67 -92 -136 -12 -162 162 -274 371 -240 112 18
190 61 287 159 116 117 132 157 137 341 4 122 2 138 -16 168 -22 34 -51 41
-71 17z"/>
<path d="M936 3879 c-272 -35 -414 -102 -475 -224 -19 -38 -21 -51 -13 -70 20
-44 67 -60 172 -60 82 0 103 4 151 26 75 36 379 297 379 327 0 14 -106 14
-214 1z"/>
<path d="M8204 3443 c-9 -10 -22 -31 -29 -48 -20 -47 -45 -179 -45 -237 0
-174 122 -359 294 -443 70 -35 88 -40 171 -43 105 -5 152 10 218 68 73 64 82
193 19 253 -70 66 -211 99 -278 64 -97 -50 -90 -168 13 -196 42 -12 84 0 125
34 42 35 62 30 66 -18 3 -31 -2 -43 -27 -66 -64 -59 -191 -66 -279 -15 -127
73 -190 154 -223 284 -26 103 -22 148 21 262 27 72 30 91 20 103 -17 20 -45
19 -66 -2z"/>
<path d="M8577 3352 c-11 -17 137 -143 301 -255 142 -97 355 -116 401 -35 13
22 13 31 -2 70 -42 109 -162 189 -312 208 -130 17 -381 25 -388 12z"/>
<path d="M1787 3320 c-146 -26 -232 -82 -258 -168 -11 -39 -10 -45 8 -70 27
-37 60 -52 113 -52 96 0 182 46 258 139 45 55 55 100 29 135 -16 22 -81 28
-150 16z"/>
<path d="M1195 3061 c-22 -10 -94 -49 -160 -88 -232 -135 -255 -152 -255 -193
0 -58 28 -61 221 -25 275 52 341 81 409 180 63 91 21 145 -110 145 -41 0 -80
-7 -105 -19z"/>
<path d="M1835 2910 c-223 -40 -396 -198 -412 -378 -16 -172 122 -291 257
-222 139 71 199 264 99 316 -46 23 -84 18 -123 -19 -45 -42 -52 -74 -32 -134
14 -41 14 -49 2 -62 -36 -35 -106 35 -106 106 0 108 74 204 207 270 74 37 80
38 177 37 137 -1 194 -23 294 -116 85 -79 115 -86 120 -29 3 29 -3 39 -45 78
-137 128 -286 180 -438 153z"/>
<path d="M7787 2860 c-38 -24 -40 -57 -6 -120 40 -76 121 -165 173 -192 59
-31 137 -30 171 2 47 44 26 139 -49 218 -65 69 -237 124 -289 92z"/>
<path d="M2492 2528 c-20 -20 -14 -37 32 -107 63 -94 79 -151 74 -258 -6 -130
-32 -188 -127 -283 -87 -88 -151 -116 -232 -104 -82 13 -119 43 -119 99 0 35
21 40 69 16 51 -27 95 -27 137 0 66 41 67 129 2 169 -104 63 -304 -37 -323
-162 -11 -71 36 -157 105 -193 165 -85 403 23 514 234 85 163 86 313 2 479
-54 106 -100 144 -134 110z"/>
<path d="M8231 2501 c-36 -36 -20 -118 40 -202 12 -17 109 -88 216 -160 153
-101 202 -129 229 -129 33 0 54 20 54 53 0 17 -118 183 -212 299 -83 102 -153
145 -250 155 -48 5 -58 3 -77 -16z"/>
<path d="M7532 2490 c-60 -21 -150 -70 -199 -107 -36 -26 -45 -71 -19 -92 18
-15 34 -8 119 55 81 60 145 77 266 72 82 -3 105 -8 155 -33 67 -34 164 -123
191 -175 27 -51 31 -156 8 -200 -28 -54 -91 -75 -107 -35 -2 7 4 30 15 51 30
60 25 97 -19 144 -48 49 -98 55 -137 16 -66 -66 -45 -196 46 -283 66 -63 124
-78 192 -49 137 57 167 258 63 421 -67 102 -202 196 -326 224 -73 17 -188 13
-248 -9z"/>
<path d="M1854 2256 c-193 -96 -247 -134 -306 -214 -70 -94 -88 -182 -47 -223
19 -19 30 -21 93 -17 79 5 128 26 195 83 55 45 79 79 168 235 113 199 121 220
85 220 -11 0 -95 -38 -188 -84z"/>
<path d="M7073 2183 c-41 -28 -132 -149 -163 -216 -82 -173 -33 -416 112 -561
79 -78 141 -109 231 -114 117 -7 202 44 227 138 14 50 3 93 -39 153 -57 83
-163 131 -235 107 -46 -15 -66 -44 -66 -95 0 -34 6 -47 36 -76 37 -36 40 -36
159 -26 26 2 30 -2 33 -24 2 -20 -5 -33 -30 -54 -29 -25 -38 -27 -93 -23 -101
9 -162 51 -225 157 -47 78 -74 183 -65 250 18 130 55 205 141 284 29 26 56 57
59 68 14 43 -38 63 -82 32z"/>
<path d="M3033 2094 c-111 -84 -173 -176 -173 -258 0 -106 64 -145 158 -97 88
46 150 152 159 275 5 66 3 76 -16 95 -31 31 -72 27 -128 -15z"/>
<path d="M7476 1921 c-9 -14 -2 -30 92 -221 74 -148 96 -184 147 -235 81 -82
139 -115 210 -118 73 -3 85 12 85 102 0 134 -75 232 -261 342 -108 64 -251
139 -263 139 -2 0 -7 -4 -10 -9z"/>
<path d="M6380 1860 c-24 -24 -26 -84 -6 -181 29 -133 92 -215 176 -226 68 -9
102 36 101 137 0 75 -29 138 -93 206 -80 85 -137 105 -178 64z"/>
<path d="M3475 1801 c-61 -15 -161 -77 -222 -138 -188 -188 -204 -479 -33
-594 72 -48 170 -38 228 23 35 38 65 134 60 193 -12 134 -107 198 -184 121
-29 -29 -34 -41 -34 -83 0 -42 5 -54 31 -79 43 -40 53 -62 38 -80 -6 -8 -22
-14 -36 -14 -77 0 -138 95 -131 205 8 116 97 254 201 314 113 64 216 76 348
40 64 -18 81 -20 94 -9 40 33 3 76 -82 96 -61 14 -227 17 -278 5z"/>
<path d="M4096 1694 c-9 -8 -16 -19 -16 -23 0 -17 39 -42 94 -61 77 -26 114
-50 170 -110 99 -106 134 -240 102 -390 -20 -93 -54 -144 -126 -187 -63 -38
-97 -41 -134 -12 -35 27 -34 57 2 65 85 19 101 26 117 50 46 71 34 143 -28
169 -95 40 -210 -68 -232 -217 -6 -38 -3 -56 15 -93 31 -64 86 -95 169 -95
235 0 384 322 281 605 -45 122 -125 207 -262 276 -83 42 -127 49 -152 23z"/>
<path d="M5762 1643 c-45 -9 -66 -81 -23 -84 9 -1 63 -2 121 -3 101 -1 110 -3
180 -38 131 -65 206 -165 237 -315 15 -72 15 -82 0 -134 -33 -113 -129 -179
-187 -130 l-25 21 24 18 c13 9 39 31 57 49 30 27 34 37 34 83 0 44 -4 56 -29
81 -82 82 -201 -18 -201 -169 0 -57 17 -122 39 -149 96 -116 280 -66 355 96
18 39 21 65 21 166 0 109 -3 126 -27 182 -37 83 -76 139 -140 200 -61 57 -109
84 -188 106 -57 16 -209 28 -248 20z"/>
<path d="M2744 1626 c-51 -22 -110 -83 -148 -149 -91 -164 -179 -352 -178
-381 1 -36 27 -59 56 -50 59 18 335 285 371 358 34 69 44 175 21 211 -19 29
-70 34 -122 11z"/>
<path d="M4774 1611 c-44 -19 -103 -224 -90 -313 17 -114 114 -179 180 -120
31 28 67 112 73 166 6 61 -35 201 -70 241 -25 28 -62 38 -93 26z"/>
<path d="M5375 1542 c-146 -63 -246 -148 -290 -248 -72 -162 -73 -328 -3 -467
41 -82 88 -130 159 -162 107 -48 205 -22 260 69 50 82 -8 258 -101 306 -57 29
-95 26 -132 -10 -28 -28 -30 -35 -26 -82 4 -42 11 -57 37 -80 17 -15 42 -28
56 -28 36 0 75 -18 75 -34 0 -22 -49 -56 -82 -56 -72 0 -163 81 -193 171 -25
75 -25 198 -1 270 25 74 90 165 149 209 26 20 78 46 116 58 91 30 118 51 102
80 -15 27 -67 29 -126 4z"/>
<path d="M6636 1351 c-9 -10 -21 -42 -28 -72 -16 -80 1 -146 69 -260 30 -52
80 -136 110 -187 77 -129 124 -161 158 -108 15 22 14 34 -5 147 -25 147 -65
311 -86 351 -37 71 -132 148 -182 148 -10 0 -26 -8 -36 -19z"/>
<path d="M3771 1256 c-88 -119 -181 -273 -202 -334 -53 -151 -22 -322 57 -322
58 0 144 71 185 153 42 82 49 124 49 323 0 200 -5 254 -24 254 -6 0 -35 -33
-65 -74z"/>
<path d="M5675 1070 c-13 -21 -27 -252 -23 -380 4 -123 7 -141 34 -200 36 -80
49 -98 95 -133 63 -48 100 -30 145 71 30 65 32 155 6 239 -27 85 -218 413
-241 413 -5 0 -12 -4 -16 -10z"/>
<path d="M4779 1035 c-34 -18 -75 -80 -89 -135 -13 -47 -9 -176 11 -392 11
-127 20 -154 54 -170 22 -10 29 -9 47 9 34 34 128 385 128 478 0 87 -69 226
-112 225 -7 -1 -25 -7 -39 -15z"/>
</g>
</svg>
