<svg xmlns="http://www.w3.org/2000/svg" xmlns:xlink="http://www.w3.org/1999/xlink" version="1.1" width="37.434" height="37.434" style="" xml:space="preserve"><rect id="backgroundrect" width="100%" height="100%" x="0" y="0" fill="none" stroke="none"/>
















<g class="currentLayer" style=""><title>Layer 1</title><g id="svg_1" class="selected" fill="#ffffff" fill-opacity="1">
	<path d="M32.932,8.578H27.52V8.022c0-2.484-2.016-4.5-4.5-4.5h-8.607c-2.485,0-4.5,2.016-4.5,4.5v0.556H4.5   c-2.485,0-4.5,2.015-4.5,4.5v16.334c0,2.484,2.015,4.5,4.5,4.5h28.434c2.485,0,4.5-2.016,4.5-4.5V13.078   C37.432,10.592,35.417,8.578,32.932,8.578z M18.715,29.244c-4.688,0-8.5-3.812-8.5-8.5c0-4.687,3.812-8.5,8.5-8.5   c4.688,0,8.5,3.812,8.5,8.5C27.215,25.432,23.402,29.244,18.715,29.244z M23.215,20.744c0,2.479-2.02,4.5-4.5,4.5   c-2.48,0-4.5-2.021-4.5-4.5c0-2.48,2.02-4.5,4.5-4.5C21.195,16.244,23.215,18.264,23.215,20.744z" id="svg_2" fill="#ffffff" fill-opacity="1"/>
</g><g id="svg_3">
</g><g id="svg_4">
</g><g id="svg_5">
</g><g id="svg_6">
</g><g id="svg_7">
</g><g id="svg_8">
</g><g id="svg_9">
</g><g id="svg_10">
</g><g id="svg_11">
</g><g id="svg_12">
</g><g id="svg_13">
</g><g id="svg_14">
</g><g id="svg_15">
</g><g id="svg_16">
</g><g id="svg_17">
</g></g></svg>