<?xml version="1.0" standalone="no"?>
<!DOCTYPE svg PUBLIC "-//W3C//DTD SVG 20010904//EN"
 "http://www.w3.org/TR/2001/REC-SVG-20010904/DTD/svg10.dtd">
<svg version="1.0" xmlns="http://www.w3.org/2000/svg"
 width="128.000000pt" height="128.000000pt" viewBox="0 0 128.000000 128.000000"
 preserveAspectRatio="xMidYMid meet">

<g transform="translate(0.000000,128.000000) scale(0.100000,-0.100000)"
fill="#000000" stroke="none">
<path d="M260 1258 c-6 -13 -21 -52 -34 -88 l-24 -65 -98 -5 -99 -5 0 -295 0
-295 313 -3 c347 -3 323 -8 296 71 -8 25 -14 58 -12 74 4 40 36 41 154 4 54
-17 102 -31 106 -31 4 0 8 106 8 235 l0 235 -22 5 c-13 3 -59 6 -102 7 l-79 3
-32 85 -32 85 -167 3 c-165 2 -166 2 -176 -20z m285 -68 c0 -12 -20 -16 -104
-18 -101 -3 -131 4 -116 27 4 8 42 11 113 9 87 -2 107 -6 107 -18z m-3 -118
c62 -27 105 -68 134 -124 44 -86 43 -213 -2 -213 -17 0 -19 6 -16 66 4 77 -16
135 -64 183 -141 141 -384 40 -384 -159 0 -66 16 -108 59 -157 52 -60 105 -73
251 -65 50 3 46 -24 -5 -41 -53 -18 -150 -10 -202 17 -87 44 -153 147 -153
240 0 126 89 239 215 272 43 12 118 3 167 -19z m-387 -67 c0 -15 -8 -21 -34
-23 -38 -4 -57 9 -47 33 4 12 16 15 43 13 30 -2 38 -7 38 -23z m640 0 c0 -15
-8 -21 -34 -23 -38 -4 -57 9 -47 33 4 12 16 15 43 13 30 -2 38 -7 38 -23z
m-277 -22 c66 -31 110 -116 96 -188 -12 -66 -50 -54 -45 15 7 106 -98 180
-192 135 -89 -42 -103 -161 -27 -230 18 -16 37 -20 93 -20 60 -1 72 -4 75 -18
8 -39 -97 -49 -166 -16 -82 40 -120 138 -88 224 19 50 73 102 114 111 15 3 32
7 37 9 16 5 68 -7 103 -22z"/>
<path d="M655 593 c53 -175 152 -458 162 -461 7 -2 29 23 49 55 21 32 42 61
48 65 6 4 63 -44 136 -117 69 -69 130 -125 136 -125 13 0 84 72 84 86 0 5 -54
63 -120 129 -66 66 -120 127 -120 135 0 8 27 32 60 52 33 20 60 42 60 47 0 17
-27 27 -261 102 -123 39 -230 74 -236 76 -9 4 -9 -7 2 -44z"/>
</g>
</svg>
