<svg xmlns="http://www.w3.org/2000/svg" xmlns:xlink="http://www.w3.org/1999/xlink" version="1.1" width="40" height="40" style="" xml:space="preserve"><rect id="backgroundrect" width="100%" height="100%" x="0" y="0" fill="none" stroke="none"/>
















<g class="currentLayer" style=""><title>Layer 1</title><g id="svg_1" class="" fill="#ffffff" fill-opacity="1">
	<path d="M20,0C8.974,0,0,8.973,0,20c0,11.027,8.974,20,20,20c11.029,0,20-8.973,20-20C40,8.973,31.029,0,20,0z M28.818,17.875   l-8.562,8.564c-0.596,0.595-1.377,0.893-2.158,0.893c-0.779,0-1.561-0.298-2.156-0.893l-4.758-4.758   c-1.191-1.191-1.191-3.124,0-4.313c1.191-1.192,3.121-1.192,4.314,0l2.6,2.6l6.408-6.407c1.188-1.189,3.123-1.189,4.312,0   C30.01,14.752,30.01,16.684,28.818,17.875z" id="svg_2" fill="#ffffff" fill-opacity="1"/>
</g><g id="svg_3">
</g><g id="svg_4">
</g><g id="svg_5">
</g><g id="svg_6">
</g><g id="svg_7">
</g><g id="svg_8">
</g><g id="svg_9">
</g><g id="svg_10">
</g><g id="svg_11">
</g><g id="svg_12">
</g><g id="svg_13">
</g><g id="svg_14">
</g><g id="svg_15">
</g><g id="svg_16">
</g><g id="svg_17">
</g></g></svg>