<?xml version="1.0" encoding="UTF-8" standalone="no"?>
<svg
   xmlns:dc="http://purl.org/dc/elements/1.1/"
   xmlns:cc="http://creativecommons.org/ns#"
   xmlns:rdf="http://www.w3.org/1999/02/22-rdf-syntax-ns#"
   xmlns:svg="http://www.w3.org/2000/svg"
   xmlns="http://www.w3.org/2000/svg"
   xmlns:sodipodi="http://sodipodi.sourceforge.net/DTD/sodipodi-0.dtd"
   xmlns:inkscape="http://www.inkscape.org/namespaces/inkscape"
   version="1.0"
   width="512.000000pt"
   height="512.000000pt"
   viewBox="0 0 512.000000 512.000000"
   preserveAspectRatio="xMidYMid meet"
   id="svg6"
   sodipodi:docname="cloud-computing.svg"
   inkscape:version="0.92.5 (2060ec1f9f, 2020-04-08)">
  <metadata
     id="metadata12">
    <rdf:RDF>
      <cc:Work
         rdf:about="">
        <dc:format>image/svg+xml</dc:format>
        <dc:type
           rdf:resource="http://purl.org/dc/dcmitype/StillImage" />
      </cc:Work>
    </rdf:RDF>
  </metadata>
  <defs
     id="defs10" />
  <sodipodi:namedview
     pagecolor="#ffffff"
     bordercolor="#666666"
     borderopacity="1"
     objecttolerance="10"
     gridtolerance="10"
     guidetolerance="10"
     inkscape:pageopacity="0"
     inkscape:pageshadow="2"
     inkscape:window-width="760"
     inkscape:window-height="480"
     id="namedview8"
     showgrid="false"
     inkscape:zoom="0.34570313"
     inkscape:cx="341.33333"
     inkscape:cy="341.33333"
     inkscape:window-x="0"
     inkscape:window-y="0"
     inkscape:window-maximized="0"
     inkscape:current-layer="g4" />
  <g
     transform="translate(0.000000,512.000000) scale(0.100000,-0.100000)"
     fill="#000000"
     stroke="none"
     id="g4">
    <path
       d="M2545 4413 c-71 -9 -196 -37 -270 -60 -328 -104 -631 -352 -802 -659 -40 -72 -51 -84 -68 -79 -190 56 -361 43 -530 -40 -192 -94 -324 -253 -376 -452 -26 -102 -28 -255 -4 -355 l18 -72 -24 -15 c-157 -104 -295 -255 -372 -407 -212 -419 -122 -934 222 -1274 136 -134 287 -224 459 -273 75 -21 94 -22 750 -25 l672 -3 -2 553 -3 553 -206 5 c-221 5 -226 7 -255 61 -18 36 -17 67 4 105 35 63 714 994 740 1015 39 30 107 22 142 -18 30 -33 688 -944 719 -994 11 -18 21 -45 21 -59 0 -35 -35 -89 -66 -100 -14 -6 -113 -10 -220 -10 l-194 0 0 -555 0 -555 569 0 c626 0 662 3 827 61 179 63 318 151 454 288 180 180 293 388 347 641 24 116 25 353 0 467 -99 462 -416 821 -839 947 -46 13 -95 27 -109 30 -24 5 -27 12 -34 63 -36 297 -177 578 -404 804 -229 228 -483 358 -793 404 -89 14 -297 18 -373 8z"
       id="path2"
       style="fill:#ffffff" />
  </g>
</svg>
