<?xml version="1.0" encoding="UTF-8" standalone="no"?>
<!-- Generator: Adobe Illustrator 16.0.0, SVG Export Plug-In . SVG Version: 6.00 Build 0)  -->

<svg
   xmlns:dc="http://purl.org/dc/elements/1.1/"
   xmlns:cc="http://creativecommons.org/ns#"
   xmlns:rdf="http://www.w3.org/1999/02/22-rdf-syntax-ns#"
   xmlns:svg="http://www.w3.org/2000/svg"
   xmlns="http://www.w3.org/2000/svg"
   xmlns:sodipodi="http://sodipodi.sourceforge.net/DTD/sodipodi-0.dtd"
   xmlns:inkscape="http://www.inkscape.org/namespaces/inkscape"
   version="1.1"
   id="Capa_1"
   x="0px"
   y="0px"
   width="38.998px"
   height="38.998px"
   viewBox="0 0 38.998 38.998"
   style="enable-background:new 0 0 38.998 38.998;"
   xml:space="preserve"
   sodipodi:docname="cogwheel.svg"
   inkscape:version="0.92.5 (2060ec1f9f, 2020-04-08)"><metadata
   id="metadata41"><rdf:RDF><cc:Work
       rdf:about=""><dc:format>image/svg+xml</dc:format><dc:type
         rdf:resource="http://purl.org/dc/dcmitype/StillImage" /></cc:Work></rdf:RDF></metadata><defs
   id="defs39" /><sodipodi:namedview
   pagecolor="#ffffff"
   bordercolor="#666666"
   borderopacity="1"
   objecttolerance="10"
   gridtolerance="10"
   guidetolerance="10"
   inkscape:pageopacity="0"
   inkscape:pageshadow="2"
   inkscape:window-width="760"
   inkscape:window-height="480"
   id="namedview37"
   showgrid="false"
   inkscape:zoom="6.0515922"
   inkscape:cx="19.499001"
   inkscape:cy="19.499001"
   inkscape:window-x="0"
   inkscape:window-y="0"
   inkscape:window-maximized="0"
   inkscape:current-layer="g4" />
<g
   id="g4">
	<path
   d="M35.497,15.111h-1.656c-0.282-0.924-0.653-1.807-1.102-2.646l1.176-1.175c1.364-1.366,1.366-3.582,0-4.949l-1.258-1.258   c-0.656-0.656-1.548-1.025-2.476-1.025l0,0c-0.93,0-1.818,0.369-2.477,1.025l-1.176,1.175c-0.838-0.446-1.721-0.817-2.645-1.102   V3.501c0-1.934-1.566-3.5-3.5-3.5h-1.778c-1.934,0-3.5,1.566-3.5,3.5v1.655c-0.923,0.282-1.807,0.653-2.645,1.102l-1.174-1.175   c-1.367-1.367-3.584-1.367-4.951,0L5.081,6.34c-1.367,1.366-1.367,3.583,0,4.949l1.174,1.175c-0.446,0.84-0.818,1.723-1.102,2.646   H3.5c-1.934,0-3.5,1.566-3.5,3.5v1.778c0,1.932,1.566,3.5,3.5,3.5h1.654c0.283,0.922,0.654,1.807,1.102,2.645l-1.175,1.176   c-1.366,1.365-1.366,3.582-0.001,4.949l1.258,1.258c0.656,0.654,1.547,1.023,2.475,1.023h0.001c0.929,0,1.818-0.369,2.475-1.023   l1.176-1.176c0.837,0.447,1.722,0.818,2.644,1.102v1.656c0,1.932,1.566,3.5,3.5,3.5h1.778c1.934,0,3.5-1.568,3.5-3.5v-1.656   c0.924-0.283,1.807-0.654,2.645-1.102l1.177,1.176c0.655,0.656,1.547,1.023,2.476,1.023c0.93,0,1.817-0.369,2.477-1.023   l1.256-1.258c1.366-1.367,1.365-3.582,0-4.949l-1.176-1.174c0.447-0.84,0.818-1.725,1.102-2.646h1.656c1.934,0,3.5-1.568,3.5-3.5   v-1.777C38.997,16.679,37.43,15.111,35.497,15.111z M19.499,27.499c-4.41,0-8-3.588-8-8c0-4.411,3.59-8,8-8c4.412,0,8,3.589,8,8   C27.499,23.911,23.911,27.499,19.499,27.499z"
   id="path2"
   style="fill:#ffffff" />
</g>
<g
   id="g6">
</g>
<g
   id="g8">
</g>
<g
   id="g10">
</g>
<g
   id="g12">
</g>
<g
   id="g14">
</g>
<g
   id="g16">
</g>
<g
   id="g18">
</g>
<g
   id="g20">
</g>
<g
   id="g22">
</g>
<g
   id="g24">
</g>
<g
   id="g26">
</g>
<g
   id="g28">
</g>
<g
   id="g30">
</g>
<g
   id="g32">
</g>
<g
   id="g34">
</g>
</svg>