<svg xmlns="http://www.w3.org/2000/svg" xmlns:xlink="http://www.w3.org/1999/xlink" version="1.1" width="36.375" height="36.376" style="enable-background:new 0 0 36.375 36.376;" xml:space="preserve"><rect id="backgroundrect" width="100%" height="100%" x="0" y="0" fill="none" stroke="none"/>
















<g class="currentLayer" style=""><title>Layer 1</title><g id="svg_1" class="selected" fill="#ffffff" fill-opacity="1">
	<path d="M33.938,25.626v8.25c0,1.383-1.119,2.5-2.5,2.5h-26.5c-1.381,0-2.5-1.117-2.5-2.5v-8.25c0-1.381,1.119-2.5,2.5-2.5   s2.5,1.119,2.5,2.5v5.75h21.5v-5.75c0-1.381,1.119-2.5,2.5-2.5S33.938,24.245,33.938,25.626z M16.42,27.768   c0.488,0.488,1.129,0.732,1.768,0.732c0.643,0,1.279-0.244,1.77-0.732l7.5-7.498c0.978-0.975,0.978-2.558,0-3.535   c-0.977-0.977-2.561-0.977-3.535,0l-3.231,3.232V2.5c0-1.381-1.119-2.5-2.5-2.5s-2.5,1.119-2.5,2.5v17.467l-3.232-3.232   c-0.977-0.977-2.561-0.977-3.535,0c-0.977,0.978-0.977,2.56,0,3.535L16.42,27.768z" id="svg_2" fill="#ffffff" fill-opacity="1"/>
</g><g id="svg_3">
</g><g id="svg_4">
</g><g id="svg_5">
</g><g id="svg_6">
</g><g id="svg_7">
</g><g id="svg_8">
</g><g id="svg_9">
</g><g id="svg_10">
</g><g id="svg_11">
</g><g id="svg_12">
</g><g id="svg_13">
</g><g id="svg_14">
</g><g id="svg_15">
</g><g id="svg_16">
</g><g id="svg_17">
</g></g></svg>