<svg xmlns="http://www.w3.org/2000/svg" xmlns:xlink="http://www.w3.org/1999/xlink" version="1.1" width="37.166" height="37.166" style="" xml:space="preserve"><rect id="backgroundrect" width="100%" height="100%" x="0" y="0" fill="none" stroke="none"/>
















<g class="currentLayer" style=""><title>Layer 1</title><g id="svg_1" class="selected" fill="#ffffff" fill-opacity="1">
	<path d="M35.829,32.045l-6.833-6.833c-0.513-0.513-1.167-0.788-1.836-0.853c2.06-2.567,3.298-5.819,3.298-9.359   c0-8.271-6.729-15-15-15c-8.271,0-15,6.729-15,15c0,8.271,6.729,15,15,15c3.121,0,6.021-0.96,8.424-2.598   c0.018,0.744,0.305,1.482,0.872,2.052l6.833,6.833c0.585,0.586,1.354,0.879,2.121,0.879s1.536-0.293,2.121-0.879   C37.001,35.116,37.001,33.217,35.829,32.045z M15.458,25c-5.514,0-10-4.484-10-10c0-5.514,4.486-10,10-10c5.514,0,10,4.486,10,10   C25.458,20.516,20.972,25,15.458,25z" id="svg_2" fill="#ffffff" fill-opacity="1"/>
</g><g id="svg_3">
</g><g id="svg_4">
</g><g id="svg_5">
</g><g id="svg_6">
</g><g id="svg_7">
</g><g id="svg_8">
</g><g id="svg_9">
</g><g id="svg_10">
</g><g id="svg_11">
</g><g id="svg_12">
</g><g id="svg_13">
</g><g id="svg_14">
</g><g id="svg_15">
</g><g id="svg_16">
</g><g id="svg_17">
</g></g></svg>