<?xml version="1.0" standalone="no"?>
<!DOCTYPE svg PUBLIC "-//W3C//DTD SVG 20010904//EN"
 "http://www.w3.org/TR/2001/REC-SVG-20010904/DTD/svg10.dtd">
<svg version="1.0" xmlns="http://www.w3.org/2000/svg"
 width="128.000000pt" height="128.000000pt" viewBox="0 0 128.000000 128.000000"
 preserveAspectRatio="xMidYMid meet">

<g transform="translate(0.000000,128.000000) scale(0.100000,-0.100000)"
fill="#000000" stroke="none">
<path d="M167 1115 c-15 -15 -17 -54 -17 -375 0 -407 -3 -390 78 -390 56 0
200 -33 245 -56 18 -9 53 -32 80 -51 l47 -35 0 369 0 369 -41 42 c-78 82 -172
124 -305 137 -59 6 -74 4 -87 -10z"/>
<path d="M979 1119 c-107 -15 -195 -61 -266 -139 l-33 -35 0 -368 0 -369 48
35 c26 19 61 42 79 51 45 23 189 56 245 56 81 0 78 -17 78 390 0 313 -2 361
-16 374 -17 17 -47 18 -135 5z"/>
<path d="M16 954 c-14 -13 -16 -63 -16 -394 0 -331 2 -381 16 -394 18 -19 10
-19 109 -1 89 16 309 19 368 6 38 -9 38 -9 21 10 -41 46 -200 98 -297 99 -55
0 -103 26 -121 65 -13 28 -16 80 -16 329 l0 296 -24 0 c-14 0 -32 -7 -40 -16z"/>
<path d="M1200 674 c0 -249 -3 -301 -16 -329 -18 -39 -66 -65 -121 -65 -97 -1
-256 -53 -297 -99 -17 -19 -17 -19 21 -10 59 13 279 10 368 -6 99 -18 91 -18
109 1 14 13 16 63 16 394 0 412 0 410 -56 410 l-24 0 0 -296z"/>
</g>
</svg>
