<svg xmlns="http://www.w3.org/2000/svg" xmlns:xlink="http://www.w3.org/1999/xlink" version="1.1" width="37" height="37" style="" xml:space="preserve"><rect id="backgroundrect" width="100%" height="100%" x="0" y="0" fill="none" stroke="none"/>
















<g class="currentLayer" style=""><title>Layer 1</title><g id="svg_1" class="selected" fill="#ffffff" fill-opacity="1">
	<path d="M36.75,8.5V35c0,1.104-0.895,2-2,2H8.25c-1.104,0-2-0.896-2-2V8.5c0-1.104,0.896-2,2-2h26.5   C35.855,6.5,36.75,7.396,36.75,8.5z M30.75,2c0-1.104-0.895-2-2-2H2.25c-1.104,0-2,0.896-2,2v26.5c0,1.104,0.896,2,2,2   c1.105,0,2-0.896,2-2V4h24.5C29.855,4,30.75,3.104,30.75,2z" id="svg_2" fill="#ffffff" fill-opacity="1"/>
</g><g id="svg_3" class="">
</g><g id="svg_4" class="">
</g><g id="svg_5" class="">
</g><g id="svg_6" class="">
</g><g id="svg_7" class="">
</g><g id="svg_8" class="">
</g><g id="svg_9" class="">
</g><g id="svg_10" class="">
</g><g id="svg_11" class="">
</g><g id="svg_12" class="">
</g><g id="svg_13" class="">
</g><g id="svg_14" class="">
</g><g id="svg_15" class="">
</g><g id="svg_16" class="">
</g><g id="svg_17" class="">
</g></g></svg>