<?xml version="1.0" encoding="UTF-8" standalone="no"?>
<!-- Generator: Adobe Illustrator 16.0.0, SVG Export Plug-In . SVG Version: 6.00 Build 0)  -->

<svg
   xmlns:dc="http://purl.org/dc/elements/1.1/"
   xmlns:cc="http://creativecommons.org/ns#"
   xmlns:rdf="http://www.w3.org/1999/02/22-rdf-syntax-ns#"
   xmlns:svg="http://www.w3.org/2000/svg"
   xmlns="http://www.w3.org/2000/svg"
   xmlns:sodipodi="http://sodipodi.sourceforge.net/DTD/sodipodi-0.dtd"
   xmlns:inkscape="http://www.inkscape.org/namespaces/inkscape"
   version="1.1"
   id="Capa_1"
   x="0px"
   y="0px"
   width="42.206px"
   height="42.207px"
   viewBox="0 0 42.206 42.207"
   style="enable-background:new 0 0 42.206 42.207;"
   xml:space="preserve"
   sodipodi:docname="pencil-on-a-square-outline.svg"
   inkscape:version="0.92.5 (2060ec1f9f, 2020-04-08)"><metadata
   id="metadata41"><rdf:RDF><cc:Work
       rdf:about=""><dc:format>image/svg+xml</dc:format><dc:type
         rdf:resource="http://purl.org/dc/dcmitype/StillImage" /></cc:Work></rdf:RDF></metadata><defs
   id="defs39" /><sodipodi:namedview
   pagecolor="#ffffff"
   bordercolor="#666666"
   borderopacity="1"
   objecttolerance="10"
   gridtolerance="10"
   guidetolerance="10"
   inkscape:pageopacity="0"
   inkscape:pageshadow="2"
   inkscape:window-width="760"
   inkscape:window-height="480"
   id="namedview37"
   showgrid="false"
   inkscape:zoom="5.5914895"
   inkscape:cx="21.103001"
   inkscape:cy="21.1035"
   inkscape:window-x="0"
   inkscape:window-y="0"
   inkscape:window-maximized="0"
   inkscape:current-layer="g4" />
<g
   id="g4">
	<path
   d="M28.118,22.566l3.44-2.119v14.715c0,0.95-0.771,1.723-1.722,1.723H1.723C0.772,36.884,0,36.113,0,35.162V7.045   c0-0.951,0.771-1.723,1.723-1.723h28.116c0.951,0,1.724,0.771,1.724,1.723v2.168l-3.442,2.118V8.766H3.441v24.675h24.676   L28.118,22.566L28.118,22.566z M12.643,27.394c-0.369,0.229-0.854,0.113-1.08-0.256c-0.229-0.369-0.112-0.855,0.256-1.082   l25.06-15.42l-1.646-2.673L9.728,23.658c-0.252,0.154-0.453,0.377-0.586,0.641l-1.979,3.979c-0.241,0.486-0.217,1.062,0.067,1.523   c0.285,0.461,0.789,0.743,1.33,0.747l4.447,0.025c0.293,0,0.582-0.08,0.831-0.231l25.506-15.697l-1.646-2.671L12.643,27.394z    M41.973,11.185l-2.467-4.006c-0.455-0.737-1.424-0.97-2.162-0.515l-1.023,0.63l4.113,6.683l1.023-0.63   C42.197,12.893,42.428,11.924,41.973,11.185z"
   id="path2"
   style="fill:#ffffff" />
</g>
<g
   id="g6">
</g>
<g
   id="g8">
</g>
<g
   id="g10">
</g>
<g
   id="g12">
</g>
<g
   id="g14">
</g>
<g
   id="g16">
</g>
<g
   id="g18">
</g>
<g
   id="g20">
</g>
<g
   id="g22">
</g>
<g
   id="g24">
</g>
<g
   id="g26">
</g>
<g
   id="g28">
</g>
<g
   id="g30">
</g>
<g
   id="g32">
</g>
<g
   id="g34">
</g>
</svg>