<?xml version="1.0" encoding="UTF-8" standalone="no"?>
<!-- Generator: Adobe Illustrator 16.0.0, SVG Export Plug-In . SVG Version: 6.00 Build 0)  -->

<svg
   xmlns:dc="http://purl.org/dc/elements/1.1/"
   xmlns:cc="http://creativecommons.org/ns#"
   xmlns:rdf="http://www.w3.org/1999/02/22-rdf-syntax-ns#"
   xmlns:svg="http://www.w3.org/2000/svg"
   xmlns="http://www.w3.org/2000/svg"
   xmlns:sodipodi="http://sodipodi.sourceforge.net/DTD/sodipodi-0.dtd"
   xmlns:inkscape="http://www.inkscape.org/namespaces/inkscape"
   version="1.1"
   id="Capa_1"
   x="0px"
   y="0px"
   width="34px"
   height="34px"
   viewBox="0 0 34 34"
   style="enable-background:new 0 0 34 34;"
   xml:space="preserve"
   sodipodi:docname="plus-sign.svg"
   inkscape:version="0.92.5 (2060ec1f9f, 2020-04-08)"><metadata
   id="metadata41"><rdf:RDF><cc:Work
       rdf:about=""><dc:format>image/svg+xml</dc:format><dc:type
         rdf:resource="http://purl.org/dc/dcmitype/StillImage" /></cc:Work></rdf:RDF></metadata><defs
   id="defs39" /><sodipodi:namedview
   pagecolor="#ffffff"
   bordercolor="#666666"
   borderopacity="1"
   objecttolerance="10"
   gridtolerance="10"
   guidetolerance="10"
   inkscape:pageopacity="0"
   inkscape:pageshadow="2"
   inkscape:window-width="760"
   inkscape:window-height="480"
   id="namedview37"
   showgrid="false"
   inkscape:zoom="6.9411765"
   inkscape:cx="17"
   inkscape:cy="17"
   inkscape:window-x="0"
   inkscape:window-y="0"
   inkscape:window-maximized="0"
   inkscape:current-layer="g4" />
<g
   id="g4">
	<path
   d="M34,14.153v5.695c0,1.933-1.566,3.5-3.5,3.5h-7.152V30.5c0,1.932-1.565,3.5-3.5,3.5h-5.695c-1.933,0-3.5-1.568-3.5-3.5   v-7.152H3.5c-1.933,0-3.5-1.567-3.5-3.5v-5.695c0-1.934,1.567-3.5,3.5-3.5h7.152V3.5c0-1.934,1.567-3.5,3.5-3.5h5.696   c1.934,0,3.5,1.566,3.5,3.5v7.152H30.5C32.434,10.653,34,12.221,34,14.153z"
   id="path2"
   style="fill:#ffffff" />
</g>
<g
   id="g6">
</g>
<g
   id="g8">
</g>
<g
   id="g10">
</g>
<g
   id="g12">
</g>
<g
   id="g14">
</g>
<g
   id="g16">
</g>
<g
   id="g18">
</g>
<g
   id="g20">
</g>
<g
   id="g22">
</g>
<g
   id="g24">
</g>
<g
   id="g26">
</g>
<g
   id="g28">
</g>
<g
   id="g30">
</g>
<g
   id="g32">
</g>
<g
   id="g34">
</g>
</svg>