<?xml version="1.0" encoding="UTF-8" standalone="no"?>
<!-- Generator: Adobe Illustrator 16.0.0, SVG Export Plug-In . SVG Version: 6.00 Build 0)  -->

<svg
   xmlns:dc="http://purl.org/dc/elements/1.1/"
   xmlns:cc="http://creativecommons.org/ns#"
   xmlns:rdf="http://www.w3.org/1999/02/22-rdf-syntax-ns#"
   xmlns:svg="http://www.w3.org/2000/svg"
   xmlns="http://www.w3.org/2000/svg"
   xmlns:sodipodi="http://sodipodi.sourceforge.net/DTD/sodipodi-0.dtd"
   xmlns:inkscape="http://www.inkscape.org/namespaces/inkscape"
   version="1.1"
   id="Capa_1"
   x="0px"
   y="0px"
   width="39.5px"
   height="39.5px"
   viewBox="0 0 39.5 39.5"
   style="enable-background:new 0 0 39.5 39.5;"
   xml:space="preserve"
   sodipodi:docname="square-with-verification-sign.svg"
   inkscape:version="0.92.5 (2060ec1f9f, 2020-04-08)"><metadata
   id="metadata41"><rdf:RDF><cc:Work
       rdf:about=""><dc:format>image/svg+xml</dc:format><dc:type
         rdf:resource="http://purl.org/dc/dcmitype/StillImage" /></cc:Work></rdf:RDF></metadata><defs
   id="defs39" /><sodipodi:namedview
   pagecolor="#ffffff"
   bordercolor="#666666"
   borderopacity="1"
   objecttolerance="10"
   gridtolerance="10"
   guidetolerance="10"
   inkscape:pageopacity="0"
   inkscape:pageshadow="2"
   inkscape:window-width="760"
   inkscape:window-height="480"
   id="namedview37"
   showgrid="false"
   inkscape:zoom="5.9746835"
   inkscape:cx="19.75"
   inkscape:cy="19.75"
   inkscape:window-x="0"
   inkscape:window-y="0"
   inkscape:window-maximized="0"
   inkscape:current-layer="g4" />
<g
   id="g4">
	<path
   d="M27.667,12.378V8.417H5v22.666h22.667v-9.212l5-5.108v16.82c0,0.663-0.265,1.299-0.731,1.77   c-0.47,0.469-1.104,0.73-1.769,0.73H2.5c-1.381,0-2.5-1.119-2.5-2.5V5.917c0-1.381,1.119-2.5,2.5-2.5h27.667   c1.381,0,2.5,1.119,2.5,2.5V7.27l2.547-2.602c0.966-0.986,2.55-1.003,3.536-0.038c0.984,0.966,1.003,2.549,0.038,3.536   L18.949,28.435c-0.467,0.478-1.105,0.748-1.773,0.752c-0.004,0-0.009,0-0.013,0c-0.663,0-1.299-0.265-1.768-0.732l-8.19-8.191   c-0.976-0.978-0.976-2.561,0-3.537s2.559-0.977,3.536,0l6.404,6.405L27.667,12.378z"
   id="path2"
   style="fill:#4d4d4d" />
</g>
<g
   id="g6">
</g>
<g
   id="g8">
</g>
<g
   id="g10">
</g>
<g
   id="g12">
</g>
<g
   id="g14">
</g>
<g
   id="g16">
</g>
<g
   id="g18">
</g>
<g
   id="g20">
</g>
<g
   id="g22">
</g>
<g
   id="g24">
</g>
<g
   id="g26">
</g>
<g
   id="g28">
</g>
<g
   id="g30">
</g>
<g
   id="g32">
</g>
<g
   id="g34">
</g>
</svg>