<?xml version="1.0" encoding="UTF-8" standalone="no"?>
<!-- Generator: Adobe Illustrator 16.0.0, SVG Export Plug-In . SVG Version: 6.00 Build 0)  -->

<svg
   xmlns:dc="http://purl.org/dc/elements/1.1/"
   xmlns:cc="http://creativecommons.org/ns#"
   xmlns:rdf="http://www.w3.org/1999/02/22-rdf-syntax-ns#"
   xmlns:svg="http://www.w3.org/2000/svg"
   xmlns="http://www.w3.org/2000/svg"
   xmlns:sodipodi="http://sodipodi.sourceforge.net/DTD/sodipodi-0.dtd"
   xmlns:inkscape="http://www.inkscape.org/namespaces/inkscape"
   version="1.1"
   id="Capa_1"
   x="0px"
   y="0px"
   width="41.336px"
   height="41.336px"
   viewBox="0 0 41.336 41.336"
   style="enable-background:new 0 0 41.336 41.336;"
   xml:space="preserve"
   sodipodi:docname="trash-can-with-cover-from-side-view.svg"
   inkscape:version="0.92.5 (2060ec1f9f, 2020-04-08)"><metadata
   id="metadata41"><rdf:RDF><cc:Work
       rdf:about=""><dc:format>image/svg+xml</dc:format><dc:type
         rdf:resource="http://purl.org/dc/dcmitype/StillImage" /></cc:Work></rdf:RDF></metadata><defs
   id="defs39" /><sodipodi:namedview
   pagecolor="#ffffff"
   bordercolor="#666666"
   borderopacity="1"
   objecttolerance="10"
   gridtolerance="10"
   guidetolerance="10"
   inkscape:pageopacity="0"
   inkscape:pageshadow="2"
   inkscape:window-width="760"
   inkscape:window-height="480"
   id="namedview37"
   showgrid="false"
   inkscape:zoom="5.7093093"
   inkscape:cx="20.667999"
   inkscape:cy="20.667999"
   inkscape:window-x="0"
   inkscape:window-y="0"
   inkscape:window-maximized="0"
   inkscape:current-layer="g4" />
<g
   id="g4">
	<path
   d="M36.335,5.668h-8.167V1.5c0-0.828-0.672-1.5-1.5-1.5h-12c-0.828,0-1.5,0.672-1.5,1.5v4.168H5.001c-1.104,0-2,0.896-2,2   s0.896,2,2,2h2.001v29.168c0,1.381,1.119,2.5,2.5,2.5h22.332c1.381,0,2.5-1.119,2.5-2.5V9.668h2.001c1.104,0,2-0.896,2-2   S37.438,5.668,36.335,5.668z M14.168,35.67c0,0.828-0.672,1.5-1.5,1.5s-1.5-0.672-1.5-1.5v-21c0-0.828,0.672-1.5,1.5-1.5   s1.5,0.672,1.5,1.5V35.67z M22.168,35.67c0,0.828-0.672,1.5-1.5,1.5s-1.5-0.672-1.5-1.5v-21c0-0.828,0.672-1.5,1.5-1.5   s1.5,0.672,1.5,1.5V35.67z M25.168,5.668h-9V3h9V5.668z M30.168,35.67c0,0.828-0.672,1.5-1.5,1.5s-1.5-0.672-1.5-1.5v-21   c0-0.828,0.672-1.5,1.5-1.5s1.5,0.672,1.5,1.5V35.67z"
   id="path2"
   style="fill:#ffffff" />
</g>
<g
   id="g6">
</g>
<g
   id="g8">
</g>
<g
   id="g10">
</g>
<g
   id="g12">
</g>
<g
   id="g14">
</g>
<g
   id="g16">
</g>
<g
   id="g18">
</g>
<g
   id="g20">
</g>
<g
   id="g22">
</g>
<g
   id="g24">
</g>
<g
   id="g26">
</g>
<g
   id="g28">
</g>
<g
   id="g30">
</g>
<g
   id="g32">
</g>
<g
   id="g34">
</g>
</svg>