<svg xmlns="http://www.w3.org/2000/svg" xmlns:xlink="http://www.w3.org/1999/xlink" version="1.1" width="33" height="33" style="enable-background:new 0 0 33 33;" xml:space="preserve"><rect id="backgroundrect" width="100%" height="100%" x="0" y="0" fill="none" stroke="none"/>
















<g class="currentLayer" style=""><title>Layer 1</title><g id="svg_1" class="selected" fill="#ffffff" fill-opacity="1">
	<path d="M15.199,3.287v8.626c0,1.815-1.473,3.286-3.286,3.286H3.286C1.473,15.199,0,13.728,0,11.913V3.287C0,1.472,1.473,0,3.286,0   h8.627C13.729,0,15.199,1.472,15.199,3.287z M29.714,0h-8.627c-1.813,0-3.286,1.472-3.286,3.287v8.626   c0,1.815,1.473,3.286,3.286,3.286h8.627c1.813,0,3.286-1.471,3.286-3.286V3.287C33,1.472,31.527,0,29.714,0z M11.913,17.801H3.286   C1.473,17.801,0,19.271,0,21.087v8.627C0,31.527,1.473,33,3.286,33h8.627c1.813,0,3.286-1.473,3.286-3.286v-8.627   C15.199,19.271,13.729,17.801,11.913,17.801z M29.714,17.801h-8.627c-1.813,0-3.286,1.471-3.286,3.286v8.627   c0,1.813,1.473,3.286,3.286,3.286h8.627C31.527,33,33,31.527,33,29.714v-8.627C33,19.271,31.527,17.801,29.714,17.801z" id="svg_2" fill="#ffffff" fill-opacity="1"/>
</g><g id="svg_3">
</g><g id="svg_4">
</g><g id="svg_5">
</g><g id="svg_6">
</g><g id="svg_7">
</g><g id="svg_8">
</g><g id="svg_9">
</g><g id="svg_10">
</g><g id="svg_11">
</g><g id="svg_12">
</g><g id="svg_13">
</g><g id="svg_14">
</g><g id="svg_15">
</g><g id="svg_16">
</g><g id="svg_17">
</g></g></svg>